<!--
  - Copyright (c) 2021, by Miłosz Gilga <https://miloszgilga.pl>
  -
  - Licensed under the Apache License, Version 2.0 (the "License"); you may not use this
  - file except in compliance with the License. You may obtain a copy of the License at
  -
  -     <http://www.apache.org/license/LICENSE-2.0>
  -
  - Unless required by applicable law or agreed to in writing, software distributed under
  - the License is distributed on an "AS IS" BASIS, WITHOUT WARRANTIES OR CONDITIONS
  - OF ANY KIND, either express or implied. See the License for the specific language
  - governing permissions and limitations under the license.
  -->

<svg version="1.1" viewBox="0.0 0.0 352.0 88.0" fill="none" stroke="none" stroke-linecap="square" stroke-miterlimit="10" xmlns:xlink="http://www.w3.org/1999/xlink" xmlns="http://www.w3.org/2000/svg"><clipPath id="p.0"><path d="m0 0l352.0 0l0 88.0l-352.0 0l0 -88.0z" clip-rule="nonzero"/></clipPath><g clip-path="url(#p.0)"><path fill="#000000" fill-opacity="0.0" d="m0 0l352.0 0l0 88.0l-352.0 0z" fill-rule="evenodd"/><path fill="#ffffff" d="m17.249344 44.0l0 0c0 -14.342009 11.626495 -25.968504 25.968502 -25.968504l0 0c6.8872757 0 13.49247 2.73596 18.362507 7.605999c4.870041 4.870039 7.605995 11.475229 7.605995 18.362505l0 0c0 14.3420105 -11.626492 25.968506 -25.968502 25.968506l0 0c-14.342007 0 -25.968502 -11.626495 -25.968502 -25.968506z" fill-rule="evenodd"/><path stroke="#ffffff" stroke-width="1.0" stroke-linejoin="round" stroke-linecap="butt" d="m17.249344 44.0l0 0c0 -14.342009 11.626495 -25.968504 25.968502 -25.968504l0 0c6.8872757 0 13.49247 2.73596 18.362507 7.605999c4.870041 4.870039 7.605995 11.475229 7.605995 18.362505l0 0c0 14.3420105 -11.626492 25.968506 -25.968502 25.968506l0 0c-14.342007 0 -25.968502 -11.626495 -25.968502 -25.968506z" fill-rule="evenodd"/><path fill="#000000" fill-opacity="0.0" d="m10.950131 44.0l0 0c0 -17.820969 14.446748 -32.267715 32.267715 -32.267715l0 0c8.557934 0 16.765354 3.3996248 22.816723 9.450995c6.0513687 6.0513706 9.450996 14.258791 9.450996 22.816721l0 0c0 17.820969 -14.446751 32.267715 -32.26772 32.267715l0 0c-17.820967 0 -32.267715 -14.446747 -32.267715 -32.267715zm16.133858 0l0 0c0 8.910484 7.2233753 16.133858 16.133856 16.133858c8.910484 0 16.133862 -7.2233734 16.133862 -16.133858c0 -8.910484 -7.223377 -16.133858 -16.133862 -16.133858l0 0c-8.9104805 0 -16.133856 7.2233734 -16.133856 16.133858z" fill-rule="evenodd"/><path stroke="#ffffff" stroke-width="4.0" stroke-linejoin="round" stroke-linecap="butt" d="m10.950131 44.0l0 0c0 -17.820969 14.446748 -32.267715 32.267715 -32.267715l0 0c8.557934 0 16.765354 3.3996248 22.816723 9.450995c6.0513687 6.0513706 9.450996 14.258791 9.450996 22.816721l0 0c0 17.820969 -14.446751 32.267715 -32.26772 32.267715l0 0c-17.820967 0 -32.267715 -14.446747 -32.267715 -32.267715zm16.133858 0l0 0c0 8.910484 7.2233753 16.133858 16.133856 16.133858c8.910484 0 16.133862 -7.2233734 16.133862 -16.133858c0 -8.910484 -7.223377 -16.133858 -16.133862 -16.133858l0 0c-8.9104805 0 -16.133856 7.2233734 -16.133856 16.133858z" fill-rule="evenodd"/><path fill="#ffffff" d="m37.989502 10.081365l0.8740158 -3.4960628l8.70866 0l0.8740158 3.4960628z" fill-rule="evenodd"/><path stroke="#ffffff" stroke-width="1.0" stroke-linejoin="round" stroke-linecap="butt" d="m37.989502 10.081365l0.8740158 -3.4960628l8.70866 0l0.8740158 3.4960628z" fill-rule="evenodd"/><path fill="#ffffff" d="m37.989502 77.91863l0.8740158 3.4960632l8.70866 0l0.8740158 -3.4960632z" fill-rule="evenodd"/><path stroke="#ffffff" stroke-width="1.0" stroke-linejoin="round" stroke-linecap="butt" d="m37.989502 77.91863l0.8740158 3.4960632l8.70866 0l0.8740158 -3.4960632z" fill-rule="evenodd"/><path fill="#ffffff" d="m76.74541 38.771652l4.125984 1.031498l0 8.3937l-4.125984 1.031498z" fill-rule="evenodd"/><path stroke="#ffffff" stroke-width="1.0" stroke-linejoin="round" stroke-linecap="butt" d="m76.74541 38.771652l4.125984 1.031498l0 8.3937l-4.125984 1.031498z" fill-rule="evenodd"/><path fill="#ffffff" d="m9.750634 49.228348l-4.4724407 -1.1181107l0 -8.220474l4.4724407 -1.1181107z" fill-rule="evenodd"/><path stroke="#ffffff" stroke-width="1.0" stroke-linejoin="round" stroke-linecap="butt" d="m9.750634 49.228348l-4.4724407 -1.1181107l0 -8.220474l4.4724407 -1.1181107z" fill-rule="evenodd"/><path fill="#ffffff" d="m69.18752 21.834108l4.125984 -1.2440948l4.28347 7.1811028l-3.0551224 3.0393696z" fill-rule="evenodd"/><path stroke="#ffffff" stroke-width="1.0" stroke-linejoin="round" stroke-linecap="butt" d="m69.18752 21.834108l4.125984 -1.2440948l4.28347 7.1811028l-3.0551224 3.0393696z" fill-rule="evenodd"/><path fill="#ffffff" d="m17.250519 21.834108l-4.125985 -1.2440948l-4.2834644 7.1811028l3.0551176 3.0393696z" fill-rule="evenodd"/><path stroke="#ffffff" stroke-width="1.0" stroke-linejoin="round" stroke-linecap="butt" d="m17.250519 21.834108l-4.125985 -1.2440948l-4.2834644 7.1811028l3.0551176 3.0393696z" fill-rule="evenodd"/><path fill="#ffffff" d="m70.11404 64.80786l4.125984 1.2440948l4.2834625 -7.1811028l-3.0551147 -3.0393715z" fill-rule="evenodd"/><path stroke="#ffffff" stroke-width="1.0" stroke-linejoin="round" stroke-linecap="butt" d="m70.11404 64.80786l4.125984 1.2440948l4.2834625 -7.1811028l-3.0551147 -3.0393715z" fill-rule="evenodd"/><path fill="#ffffff" d="m16.324009 64.80786l-4.125984 1.2440948l-4.283465 -7.1811028l3.055118 -3.0393715z" fill-rule="evenodd"/><path stroke="#ffffff" stroke-width="1.0" stroke-linejoin="round" stroke-linecap="butt" d="m16.324009 64.80786l-4.125984 1.2440948l-4.283465 -7.1811028l3.055118 -3.0393715z" fill-rule="evenodd"/><path fill="#ffffff" d="m54.803257 11.844085l2.847786 -3.2312117l7.406788 3.8797455l-0.9947281 4.2018604z" fill-rule="evenodd"/><path stroke="#ffffff" stroke-width="1.0" stroke-linejoin="round" stroke-linecap="butt" d="m54.803257 11.844085l2.847786 -3.2312117l7.406788 3.8797455l-0.9947281 4.2018604z" fill-rule="evenodd"/><path fill="#ffffff" d="m31.632652 11.844085l-2.847786 -3.2312117l-7.406788 3.8797455l0.9947319 4.2018604z" fill-rule="evenodd"/><path stroke="#ffffff" stroke-width="1.0" stroke-linejoin="round" stroke-linecap="butt" d="m31.632652 11.844085l-2.847786 -3.2312117l-7.406788 3.8797455l0.9947319 4.2018604z" fill-rule="evenodd"/><path fill="#ffffff" d="m56.351814 74.81784l2.847786 3.2312088l7.406784 -3.8797455l-0.9947281 -4.2018585z" fill-rule="evenodd"/><path stroke="#ffffff" stroke-width="1.0" stroke-linejoin="round" stroke-linecap="butt" d="m56.351814 74.81784l2.847786 3.2312088l7.406784 -3.8797455l-0.9947281 -4.2018585z" fill-rule="evenodd"/><path fill="#ffffff" d="m30.084097 74.81784l-2.8477879 3.2312088l-7.406788 -3.8797455l0.9947319 -4.2018585z" fill-rule="evenodd"/><path stroke="#ffffff" stroke-width="1.0" stroke-linejoin="round" stroke-linecap="butt" d="m30.084097 74.81784l-2.8477879 3.2312088l-7.406788 -3.8797455l0.9947319 -4.2018585z" fill-rule="evenodd"/><path fill="#1c4587" d="m38.607613 36.607616l0 0c0 -0.1159668 0.0940094 -0.20998001 0.2099762 -0.20998001l4.0524864 0c0.055690765 0 0.10909653 0.022125244 0.14847565 0.061504364c0.03937912 0.039375305 0.06150055 0.09278488 0.06150055 0.14847565l0 0.8398857c0 0.1159668 -0.0940094 0.20998001 -0.2099762 0.20998001l-4.0524864 0c-0.1159668 0 -0.2099762 -0.094013214 -0.2099762 -0.20998001z" fill-rule="evenodd"/><path fill="#003c7d" d="m24.225721 35.935776l0 0c0 -2.2584686 1.8308525 -4.089319 4.089321 -4.089319l29.805609 0c1.0845566 0 2.124691 0.43083763 2.89159 1.1977329c0.7668953 0.7668991 1.197731 1.8070335 1.197731 2.8915863l0 16.356792c0 2.2584686 -1.8308487 4.089321 -4.089321 4.089321l-29.805609 0c-2.2584686 0 -4.089321 -1.8308525 -4.089321 -4.089321z" fill-rule="evenodd"/><path fill="#003c7d" d="m37.013123 60.43716l0 0c1.6815834 0 3.044773 -1.3631897 3.044773 -3.044773l6.3199043 0l0 0c0 1.6815834 1.3631897 3.044773 3.044773 3.044773l0 2.4773865l0 0c-1.6815834 0 -3.044773 1.3631859 -3.044773 3.044773l-6.3199043 0c0 -1.6815872 -1.3631897 -3.044773 -3.044773 -3.044773z" fill-rule="evenodd"/><path fill="#ffffff" d="m35.422573 61.446194l15.590549 0l0 5.29134l-15.590549 0z" fill-rule="evenodd"/><path fill="#ffffff" d="m26.884514 34.45537l32.72441 0l0 15.811024l-32.72441 0z" fill-rule="evenodd"/><path fill="#003c7d" d="m37.013123 61.51294l0 0c0 -0.3159027 0.25609207 -0.5719948 0.5719948 -0.5719948l11.265461 0c0.15170288 0 0.29719162 0.060264587 0.4044609 0.16753387c0.10726929 0.10726929 0.16753387 0.25275803 0.16753387 0.4044609l0 0.115852356l0 0c0 0.31590652 -0.25609207 0.5719948 -0.5719948 0.5719948l-11.265461 0c-0.3159027 0 -0.5719948 -0.25608826 -0.5719948 -0.5719948z" fill-rule="evenodd"/><path fill="#ffffff" d="m41.769028 53.195538l0 0c0 -0.80015945 0.64865875 -1.4488182 1.4488182 -1.4488182l0 0c0.38425064 0 0.75276566 0.1526413 1.0244713 0.42435074c0.27170563 0.27170563 0.42435074 0.6402168 0.42435074 1.0244675l0 0c0 0.80015945 -0.64865875 1.4488182 -1.448822 1.4488182l0 0c-0.80015945 0 -1.4488182 -0.64865875 -1.4488182 -1.4488182z" fill-rule="evenodd"/><path fill="#ffffff" d="m37.989502 26.906824l10.456692 0l0 15.811022l-10.456692 0z" fill-rule="evenodd"/><path fill="#003c7d" d="m40.103676 28.78084l-3.448822 0l0 0c-1.9047279 0 -3.4488182 1.9177723 -3.4488182 4.2834644c0 2.3656921 1.5440903 4.2834663 3.4488182 4.2834663l3.448822 0z" fill-rule="evenodd"/><path fill="#003c7d" d="m46.329395 28.78084l3.4488182 0l0 0c1.9047318 0 3.448822 1.9177723 3.448822 4.2834644c0 2.3656921 -1.5440903 4.2834663 -3.448822 4.2834663l-3.4488182 0z" fill-rule="evenodd"/><path fill="#003c7d" d="m39.074802 30.708666l0 0c0 -0.115968704 0.0940094 -0.2099781 0.20998001 -0.2099781l4.0524826 0c0.055690765 0 0.10910034 0.022123337 0.14847946 0.06150055c0.039375305 0.03937912 0.06150055 0.09278679 0.06150055 0.14847755l0 0.8398857c0 0.115968704 -0.0940094 0.2099781 -0.20998001 0.2099781l-4.0524826 0c-0.11597061 0 -0.20998001 -0.0940094 -0.20998001 -0.2099781z" fill-rule="evenodd"/><path fill="#003c7d" d="m39.074802 34.57743l0 0c0 -0.1159668 0.0940094 -0.2099762 0.20998001 -0.2099762l4.0524826 0c0.055690765 0 0.10910034 0.02212143 0.14847946 0.06150055c0.039375305 0.03937912 0.06150055 0.0927887 0.06150055 0.14847565l0 0.8398895c0 0.1159668 -0.0940094 0.2099762 -0.20998001 0.2099762l-4.0524826 0c-0.11597061 0 -0.20998001 -0.0940094 -0.20998001 -0.2099762z" fill-rule="evenodd"/><path fill="#003c7d" d="m37.441715 39.66533l4.062992 4.062992l-1.1968498 1.1653519l-4.062992 -4.062992z" fill-rule="evenodd"/><path fill="#003c7d" d="m41.477196 43.73495l-4.062992 4.062992l-1.1968498 -1.1653557l4.062992 -4.062992z" fill-rule="evenodd"/><path fill="#003c7d" d="m42.753036 45.406822l7.4645653 0.09448624l0 1.6692924l-7.4645653 -0.09448624z" fill-rule="evenodd"/><path fill="#ffffff" d="m94.08924 6.5984254l2.8976364 0l0 74.80315l-2.8976364 0z" fill-rule="evenodd"/><path fill="#000000" fill-opacity="0.0" d="m98.15748 1.855643l258.4252 0l0 50.07874l-258.4252 0z" fill-rule="evenodd"/><path fill="#ffffff" d="m116.28248 17.394392q1.296875 0 2.3125 0.359375q1.03125 0.34375 1.734375 1.03125q0.703125 0.671875 1.078125 1.671875q0.375 1.0 0.375 2.296875q0 1.421875 -0.46875 2.484375q-0.453125 1.046875 -1.3125 1.75q-0.84375 0.703125 -2.0625 1.0625q-1.203125 0.359375 -2.703125 0.359375q-0.6875 0 -1.3125 -0.03125q-0.609375 -0.046875 -1.078125 -0.109375l0 6.906252l-3.453125 0l0 -17.781252l6.890625 0zm-3.4375 8.515625q0.390625 0.0625 0.78125 0.09375q0.390625 0.03125 0.765625 0.03125q0.953125 0 1.671875 -0.15625q0.734375 -0.171875 1.21875 -0.53125q0.484375 -0.375 0.734375 -0.96875q0.25 -0.59375 0.25 -1.46875q0 -0.875 -0.1875 -1.46875q-0.1875 -0.59375 -0.59375 -0.96875q-0.40625 -0.375 -1.0625 -0.53125q-0.640625 -0.171875 -1.546875 -0.171875l-2.03125 0l0 6.140625zm17.859352 -3.875q1.625 0 2.8125 0.515625q1.1875 0.5 1.953125 1.390625q0.78125 0.890625 1.15625 2.125q0.375 1.234375 0.375 2.671875q0 1.453125 -0.375 2.6875q-0.375 1.2343769 -1.15625 2.140627q-0.765625 0.890625 -1.953125 1.40625q-1.1875 0.5 -2.8125 0.5q-1.625 0 -2.8125076 -0.5q-1.1875 -0.515625 -1.96875 -1.40625q-0.765625 -0.90625 -1.140625 -2.140627q-0.375 -1.234375 -0.375 -2.6875q0 -1.4375 0.375 -2.671875q0.375 -1.234375 1.140625 -2.125q0.78125 -0.890625 1.96875 -1.390625q1.1875076 -0.515625 2.8125076 -0.515625zm0 2.421875q-0.890625 0 -1.46875 0.34375q-0.5625 0.328125 -0.890625 0.90625q-0.3125 0.578125 -0.43750763 1.359375q-0.109375 0.78125 -0.109375 1.671875q0 0.90625 0.109375 1.703125q0.12500763 0.78125 0.43750763 1.359375q0.328125 0.5781269 0.890625 0.9218769q0.578125 0.328125 1.46875 0.328125q0.890625 0 1.453125 -0.328125q0.578125 -0.34375 0.890625 -0.9218769q0.328125 -0.578125 0.4375 -1.359375q0.125 -0.796875 0.125 -1.703125q0 -0.890625 -0.125 -1.671875q-0.109375 -0.78125 -0.4375 -1.359375q-0.3125 -0.578125 -0.890625 -0.90625q-0.5625 -0.34375 -1.453125 -0.34375zm12.22023 5.671875q0 1.03125 0.015625 1.71875q0.015625 0.6875019 0.0625 1.2187519q0.03125 0.265625 0.046875 0.46875q0.03125 0.203125 0.046875 0.40625q0.03125 0.1875 0.078125 0.375q0.046875 0.1875 0.109375 0.421875q-0.8125 0.25 -1.640625 0.4375q-0.8125 0.171875 -1.65625 0.296875q-0.1875 -0.5625 -0.328125 -1.1875q-0.125 -0.625 -0.125 -1.359375l0 -15.562502l3.390625 0l0 12.765625zm5.531906 -14.078125q0.421875 0 0.796875 0.15625q0.390625 0.15625 0.65625 0.4375q0.28125 0.28125 0.4375 0.65625q0.171875 0.375 0.171875 0.796875q0 0.4375 -0.171875 0.8125q-0.15625 0.359375 -0.4375 0.65625q-0.265625 0.28125 -0.65625 0.4375q-0.375 0.15625 -0.796875 0.15625q-0.421875 0 -0.796875 -0.15625q-0.375 -0.15625 -0.65625 -0.4375q-0.28125 -0.296875 -0.453125 -0.65625q-0.15625 -0.375 -0.15625 -0.8125q0 -0.421875 0.15625 -0.796875q0.171875 -0.375 0.453125 -0.65625q0.28125 -0.28125 0.65625 -0.4375q0.375 -0.15625 0.796875 -0.15625zm1.6875 6.265625l0 12.859377l-3.390625 0l0 -12.859377l3.390625 0zm8.815445 -2.953125l0 2.953125l4.328125 0l0 2.46875l-4.328125 0l0 6.171875q0 0.609375 0.046875 1.015625q0.0625 0.3906269 0.203125 0.6250019q0.15625 0.21875 0.421875 0.3125q0.265625 0.09375 0.671875 0.09375q0.390625 0 0.90625 -0.078125q0.53125 -0.09375 1.25 -0.265625q0.078125 0.234375 0.171875 0.53125q0.09375 0.296875 0.1875 0.609375q0.09375 0.3125 0.171875 0.609375q0.09375 0.28125 0.171875 0.5q-0.359375 0.125 -0.828125 0.234375q-0.453125 0.109375 -0.96875 0.171875q-0.5 0.078125 -1.015625 0.109375q-0.515625 0.046875 -0.984375 0.046875q-0.421875 0 -0.84375 -0.046875q-0.421875 -0.03125 -0.796875 -0.125q-0.375 -0.09375 -0.703125 -0.234375q-0.328125 -0.15625 -0.5625 -0.390625q-0.53125 -0.53125 -0.71875 -1.453125q-0.171875 -0.9375 -0.171875 -2.390627l0 -6.046875l-1.84375 0l0 -2.46875l1.84375 0l0 -2.953125l3.390625 0zm18.041183 15.234377q-0.5 0.203125 -1.109375 0.375q-0.59375 0.15625 -1.25 0.265625q-0.65625 0.109375 -1.328125 0.171875q-0.671875 0.0625 -1.3125 0.0625q-3.25 0 -4.921875 -1.5625q-1.65625 -1.5625 -1.65625 -4.796877q0 -1.4375 0.328125 -2.71875q0.34375 -1.28125 1.078125 -2.25q0.75 -0.984375 1.96875 -1.546875q1.21875 -0.5625 2.984375 -0.5625q3.09375 0 4.609375 1.640625q1.53125 1.625 1.53125 5.0l0 0.96875l-9.140625 0q0.03125 0.84375 0.203125 1.484375q0.171875 0.640625 0.5625 1.0937519q0.40625 0.4375 1.0625 0.671875q0.65625 0.21875 1.65625 0.21875q0.859375 0 1.859375 -0.21875q1.0 -0.21875 2.09375 -0.625l0.78125 2.328125zm-2.46875 -7.156252q-0.078125 -3.046875 -2.75 -3.046875q-1.359375 0 -2.078125 0.796875q-0.703125 0.78125 -0.875 2.25l5.703125 0zm16.740433 7.250002q-0.5 0.1875 -1.109375 0.34375q-0.609375 0.140625 -1.234375 0.234375q-0.609375 0.109375 -1.21875 0.15625q-0.609375 0.046875 -1.125 0.046875q-1.78125 0 -3.03125 -0.421875q-1.234375 -0.421875 -2.0 -1.234375q-0.75 -0.828125 -1.09375 -2.031252q-0.328125 -1.21875 -0.328125 -2.796875q0 -1.640625 0.421875 -2.9375q0.4375 -1.296875 1.28125 -2.1875q0.859375 -0.890625 2.125 -1.359375q1.28125 -0.46875 2.984375 -0.46875q1.0 0 1.96875 0.15625q0.984375 0.140625 1.875 0.40625l-0.828125 2.453125q-0.75 -0.25 -1.453125 -0.390625q-0.6875 -0.15625 -1.40625 -0.15625q-0.953125 0 -1.625 0.3125q-0.671875 0.3125 -1.109375 0.875q-0.4375 0.5625 -0.640625 1.34375q-0.203125 0.78125 -0.203125 1.703125q0 2.15625 0.75 3.21875q0.75 1.0468769 2.484375 1.0468769q1.0625 0 1.953125 -0.21875q0.90625 -0.234375 1.796875 -0.546875l0.765625 2.453125zm6.552643 -17.328127l0 7.15625l0.078125 0q0.390625 -0.578125 0.796875 -1.03125q0.40625 -0.453125 0.90625 -0.78125q0.5 -0.328125 1.109375 -0.5q0.609375 -0.171875 1.375 -0.171875q1.46875 0 2.359375 0.59375q0.90625 0.578125 1.34375 1.78125q0.234375 0.640625 0.328125 1.453125q0.109375 0.796875 0.109375 1.796875l0 7.515627l-3.390625 0l0 -8.500002q0 -1.0 -0.46875 -1.578125q-0.46875 -0.59375 -1.34375 -0.59375q-0.5 0 -0.96875 0.25q-0.46875 0.25 -0.890625 0.625q-0.421875 0.359375 -0.765625 0.8125q-0.34375 0.4375 -0.578125 0.84375l0 8.140627l-3.40625 0l0 -17.812502l3.40625 0zm15.585999 7.15625q0.40625 -0.625 0.84375 -1.078125q0.4375 -0.46875 0.9375 -0.78125q0.5 -0.328125 1.09375 -0.46875q0.609375 -0.15625 1.328125 -0.15625q0.828125 0 1.453125 0.1875q0.625 0.171875 1.078125 0.515625q0.46875 0.328125 0.78125 0.828125q0.3125 0.5 0.5 1.140625q0.171875 0.625 0.25 1.359375q0.09375 0.734375 0.09375 1.59375l0 7.515627l-3.390625 0l0 -8.500002q0 -1.0625 -0.5 -1.609375q-0.484375 -0.5625 -1.328125 -0.5625q-0.46875 0 -0.921875 0.21875q-0.4375 0.21875 -0.859375 0.59375q-0.421875 0.359375 -0.78125 0.828125q-0.359375 0.453125 -0.640625 0.921875l0 8.109377l-3.390625 0l0 -7.921877q0 -1.0 -0.03125 -1.671875q-0.015625 -0.6875 -0.0625 -1.203125q-0.015625 -0.265625 -0.046875 -0.453125q-0.03125 -0.203125 -0.0625 -0.390625q-0.015625 -0.1875 -0.0625 -0.375q-0.046875 -0.1875 -0.109375 -0.4375q0.796875 -0.21875 1.59375 -0.375q0.8125 -0.171875 1.625 -0.3125q0.078125 0.25 0.15625 0.515625q0.078125 0.25 0.125 0.546875q0.046875 0.28125 0.078125 0.625q0.046875 0.34375 0.078125 0.796875l0.171875 0zm13.812592 -8.46875q0.421875 0 0.796875 0.15625q0.390625 0.15625 0.65625 0.4375q0.28125 0.28125 0.4375 0.65625q0.171875 0.375 0.171875 0.796875q0 0.4375 -0.171875 0.8125q-0.15625 0.359375 -0.4375 0.65625q-0.265625 0.28125 -0.65625 0.4375q-0.375 0.15625 -0.796875 0.15625q-0.421875 0 -0.796875 -0.15625q-0.375 -0.15625 -0.65625 -0.4375q-0.28125 -0.296875 -0.453125 -0.65625q-0.15625 -0.375 -0.15625 -0.8125q0 -0.421875 0.15625 -0.796875q0.171875 -0.375 0.453125 -0.65625q0.28125 -0.28125 0.65625 -0.4375q0.375 -0.15625 0.796875 -0.15625zm1.6875 6.265625l0 12.859377l-3.390625 0l0 -12.859377l3.390625 0zm7.70607 -4.953125l0 9.421875l5.15625 -4.75l1.875 2.03125l-4.5625 4.203125l5.90625 6.906252l-4.125 0l-4.25 -5.125002l0 5.125002l-3.390625 0l0 -17.812502l3.390625 0zm10.933304 5.578125q0.453125 -0.1875 1.03125 -0.34375q0.59375 -0.15625 1.25 -0.28125q0.671875 -0.140625 1.375 -0.203125q0.71875 -0.078125 1.453125 -0.078125q1.03125 0 1.921875 0.15625q0.890625 0.15625 1.484375 0.53125q0.59375 0.375 0.921875 1.015625q0.34375 0.625 0.34375 1.59375l0 5.015625q0 0.875 0.015625 1.546875q0.015625 0.6718769 0.046875 1.3125019q0.03125 0.234375 0.046875 0.4375q0.03125 0.1875 0.0625 0.375q0.03125 0.171875 0.0625 0.375q0.046875 0.1875 0.109375 0.421875q-0.765625 0.171875 -1.53125 0.34375q-0.75 0.15625 -1.53125 0.296875q-0.140625 -0.34375 -0.21875 -0.703125q-0.078125 -0.375 -0.140625 -0.84375l-0.1875 0q-0.4375 0.453125 -0.875 0.75q-0.421875 0.296875 -0.890625 0.484375q-0.46875 0.171875 -0.984375 0.25q-0.5 0.078125 -1.0625 0.078125q-0.84375 0 -1.578125 -0.203125q-0.734375 -0.203125 -1.28125 -0.625q-0.53125 -0.421875 -0.828125 -1.0625q-0.296875 -0.65625 -0.296875 -1.53125q0 -0.7500019 0.140625 -1.3281269q0.15625 -0.578125 0.4375 -1.03125q0.296875 -0.46875 0.6875 -0.8125q0.40625 -0.34375 0.875 -0.609375q0.96875 -0.515625 2.15625 -0.703125q1.1875 -0.1875 2.421875 -0.1875l1.0625 0l0 -1.609375q0 -0.46875 -0.140625 -0.734375q-0.140625 -0.265625 -0.390625 -0.390625q-0.234375 -0.140625 -0.5625 -0.1875q-0.3125 -0.046875 -0.6875 -0.046875q-1.0 0 -2.015625 0.265625q-1.015625 0.25 -1.953125 0.625l-0.75 -2.359375zm6.5 6.25l-0.234375 0q-0.890625 0.015625 -1.6875 0.140625q-0.796875 0.109375 -1.40625 0.390625q-0.59375 0.28125 -0.96875 0.75q-0.359375 0.46875 -0.359375 1.171875q0 0.7656269 0.453125 1.1875019q0.453125 0.421875 1.265625 0.421875q0.390625 0 0.796875 -0.09375q0.40625 -0.109375 0.796875 -0.296875q0.390625 -0.203125 0.734375 -0.484375q0.359375 -0.28125 0.609375 -0.6562519l0 -2.53125zm19.675995 -18.859375q0.453125 -0.328125 0.96875 -0.5q0.53125 -0.1875 1.03125 -0.1875q0.34375 0 0.65625 0.09375q0.3125 0.09375 0.546875 0.296875q0.234375 0.203125 0.359375 0.5q0.140625 0.28125 0.140625 0.671875q0 0.46875 -0.140625 0.90625q-0.125 0.421875 -0.40625 0.921875q-0.28125 0.484375 -0.703125 1.125q-0.421875 0.625 -0.96875 1.5l-1.9375 0l1.171875 -3.234375l-0.71875 -2.09375zm-5.15625 21.765625q1.03125 0.390625 2.203125 0.65625q1.171875 0.265625 2.53125 0.265625q0.890625 0 1.625 -0.15625q0.75 -0.15625 1.28125 -0.5q0.546875 -0.359375 0.84375 -0.8906269q0.3125 -0.53125 0.3125 -1.296875q0 -0.8125 -0.328125 -1.296875q-0.328125 -0.484375 -0.921875 -0.78125q-0.59375 -0.3125 -1.4375 -0.515625q-0.84375 -0.21875 -1.859375 -0.484375q-1.15625 -0.296875 -2.109375 -0.671875q-0.9375 -0.390625 -1.609375 -0.984375q-0.65625 -0.609375 -1.03125 -1.5q-0.375 -0.890625 -0.375 -2.203125q0 -0.890625 0.28125 -1.578125q0.296875 -0.6875 0.796875 -1.203125q0.5 -0.515625 1.140625 -0.875q0.65625 -0.359375 1.359375 -0.578125q0.71875 -0.21875 1.453125 -0.3125q0.75 -0.109375 1.40625 -0.109375q0.484375 0 1.140625 0.046875q0.65625 0.046875 1.40625 0.1875q0.75 0.125 1.546875 0.34375q0.796875 0.203125 1.546875 0.515625l-0.890625 2.15625q-0.984375 -0.359375 -2.0625 -0.578125q-1.0625 -0.21875 -2.234375 -0.21875q-0.75 0 -1.375 0.125q-0.609375 0.109375 -1.0625 0.375q-0.4375 0.25 -0.6875 0.671875q-0.25 0.421875 -0.25 1.015625q0 0.765625 0.296875 1.203125q0.3125 0.421875 0.875 0.703125q0.5625 0.265625 1.390625 0.46875q0.828125 0.1875 1.859375 0.453125q1.140625 0.296875 2.09375 0.703125q0.96875 0.40625 1.65625 1.046875q0.703125 0.625 1.09375 1.5625q0.40625 0.9375 0.40625 2.3125q0 1.21875 -0.390625 2.093752q-0.375 0.859375 -1.0 1.453125q-0.609375 0.578125 -1.40625 0.921875q-0.796875 0.34375 -1.609375 0.53125q-0.8125 0.1875 -1.578125 0.234375q-0.765625 0.0625 -1.359375 0.0625q-0.5625 -0.015625 -1.28125 -0.078125q-0.703125 -0.0625 -1.484375 -0.203125q-0.78125 -0.125 -1.578125 -0.34375q-0.796875 -0.234375 -1.53125 -0.578125l0.90625 -2.171875zm18.296906 -1.9687519q0 1.03125 0.015625 1.71875q0.015625 0.6875019 0.0625 1.2187519q0.03125 0.265625 0.046875 0.46875q0.03125 0.203125 0.046875 0.40625q0.03125 0.1875 0.078125 0.375q0.046875 0.1875 0.109375 0.421875q-0.8125 0.25 -1.640625 0.4375q-0.8125 0.171875 -1.65625 0.296875q-0.1875 -0.5625 -0.328125 -1.1875q-0.125 -0.625 -0.125 -1.359375l0 -15.562502l3.390625 0l0 12.765625zm13.688141 0.21875q0 0.875 0.015625 1.546875q0.015625 0.6718769 0.046875 1.3125019q0.03125 0.234375 0.046875 0.4375q0.03125 0.1875 0.0625 0.375q0.03125 0.171875 0.0625 0.375q0.046875 0.1875 0.109375 0.421875q-0.453125 0.09375 -0.90625 0.203125q-0.4375 0.09375 -0.890625 0.1875q-0.734375 0.75 -1.140625 1.296875q-0.390625 0.5625 -0.390625 1.1875q0 0.59375 0.265625 0.828125q0.265625 0.25 0.75 0.25q0.296875 0 0.671875 -0.09375q0.375 -0.078125 0.796875 -0.203125l-0.078125 1.171875q-0.46875 0.265625 -0.96875 0.421875q-0.484375 0.15625 -1.15625 0.15625q-0.46875 0 -0.859375 -0.140625q-0.375 -0.125 -0.65625 -0.40625q-0.28125 -0.265625 -0.453125 -0.65625q-0.15625 -0.375 -0.15625 -0.84375q0 -0.484375 0.140625 -0.875q0.15625 -0.390625 0.40625 -0.75q0.25 -0.359375 0.609375 -0.734375q0.375 -0.359375 0.8125 -0.765625q-0.140625 -0.5 -0.21875 -1.140625l-0.1875 0q-0.4375 0.453125 -0.875 0.75q-0.421875 0.296875 -0.890625 0.484375q-0.46875 0.171875 -0.984375 0.25q-0.5 0.078125 -1.0625 0.078125q-0.84375 0 -1.578125 -0.203125q-0.734375 -0.203125 -1.28125 -0.625q-0.53125 -0.421875 -0.828125 -1.0625q-0.296875 -0.65625 -0.296875 -1.53125q0 -0.7500019 0.140625 -1.3281269q0.15625 -0.578125 0.4375 -1.03125q0.296875 -0.46875 0.6875 -0.8125q0.40625 -0.34375 0.875 -0.609375q0.96875 -0.515625 2.15625 -0.703125q1.1875 -0.1875 2.421875 -0.1875l1.0625 0l0 -1.609375q0 -0.46875 -0.140625 -0.734375q-0.140625 -0.265625 -0.390625 -0.390625q-0.234375 -0.140625 -0.5625 -0.1875q-0.3125 -0.046875 -0.6875 -0.046875q-1.0 0 -2.015625 0.265625q-1.015625 0.25 -1.953125 0.625l-0.75 -2.359375q0.453125 -0.1875 1.03125 -0.34375q0.59375 -0.15625 1.25 -0.28125q0.671875 -0.140625 1.375 -0.203125q0.71875 -0.078125 1.453125 -0.078125q1.03125 0 1.921875 0.15625q0.890625 0.15625 1.484375 0.53125q0.59375 0.375 0.921875 1.015625q0.34375 0.625 0.34375 1.59375l0 5.015625zm-3.28125 -1.15625l-0.234375 0q-0.890625 0.015625 -1.6875 0.140625q-0.796875 0.109375 -1.40625 0.390625q-0.59375 0.28125 -0.96875 0.75q-0.359375 0.46875 -0.359375 1.171875q0 0.7656269 0.453125 1.1875019q0.453125 0.421875 1.265625 0.421875q0.390625 0 0.796875 -0.09375q0.40625 -0.109375 0.796875 -0.296875q0.390625 -0.203125 0.734375 -0.484375q0.359375 -0.28125 0.609375 -0.6562519l0 -2.53125zm11.923553 -7.15625q1.1875 0 2.328125 0.21875q1.140625 0.203125 1.984375 0.546875q-0.171875 0.5 -0.40625 1.015625q-0.21875 0.5 -0.453125 0.953125q-0.625 -0.203125 -1.46875 -0.34375q-0.828125 -0.15625 -1.640625 -0.15625q-0.46875 0 -0.90625 0.078125q-0.421875 0.0625 -0.734375 0.21875q-0.3125 0.140625 -0.5 0.375q-0.1875 0.234375 -0.1875 0.59375q0 0.46875 0.234375 0.75q0.25 0.28125 0.640625 0.453125q0.40625 0.171875 0.9375 0.296875q0.53125 0.109375 1.109375 0.234375q0.90625 0.21875 1.6875 0.546875q0.796875 0.3125 1.359375 0.8125q0.578125 0.5 0.890625 1.234375q0.328125 0.71875 0.3125 1.71875q-0.03125 1.0937519 -0.515625 1.8437519q-0.484375 0.734375 -1.28125 1.203125q-0.796875 0.453125 -1.828125 0.640625q-1.015625 0.203125 -2.078125 0.203125q-0.703125 0 -1.40625 -0.078125q-0.703125 -0.078125 -1.359375 -0.21875q-0.640625 -0.140625 -1.203125 -0.328125q-0.546875 -0.1875 -0.96875 -0.421875q0.21875 -0.484375 0.46875 -1.0q0.265625 -0.53125 0.515625 -0.96875q0.34375 0.140625 0.796875 0.296875q0.453125 0.140625 0.953125 0.25q0.5 0.09375 1.015625 0.171875q0.53125 0.0625 1.046875 0.0625q0.515625 0 0.984375 -0.078125q0.46875 -0.09375 0.8125 -0.28125q0.359375 -0.203125 0.5625 -0.515625q0.203125 -0.3125 0.203125 -0.7812519q0 -0.515625 -0.25 -0.8125q-0.234375 -0.3125 -0.640625 -0.5q-0.40625 -0.1875 -0.9375 -0.296875q-0.53125 -0.109375 -1.09375 -0.21875q-0.875 -0.1875 -1.65625 -0.5q-0.78125 -0.328125 -1.359375 -0.828125q-0.578125 -0.515625 -0.921875 -1.234375q-0.34375 -0.71875 -0.3125 -1.703125q0.015625 -0.953125 0.46875 -1.609375q0.453125 -0.671875 1.1875 -1.078125q0.734375 -0.40625 1.671875 -0.578125q0.9375 -0.1875 1.9375 -0.1875zm11.87558 -4.671875l0 9.421875l5.15625 -4.75l1.875 2.03125l-4.5625 4.203125l5.90625 6.906252l-4.125 0l-4.25 -5.125002l0 5.125002l-3.390625 0l0 -17.812502l3.390625 0zm10.933289 5.578125q0.453125 -0.1875 1.03125 -0.34375q0.59375 -0.15625 1.25 -0.28125q0.671875 -0.140625 1.375 -0.203125q0.71875 -0.078125 1.453125 -0.078125q1.03125 0 1.921875 0.15625q0.890625 0.15625 1.484375 0.53125q0.59375 0.375 0.921875 1.015625q0.34375 0.625 0.34375 1.59375l0 5.015625q0 0.875 0.015625 1.546875q0.015625 0.6718769 0.046875 1.3125019q0.03125 0.234375 0.046875 0.4375q0.03125 0.1875 0.0625 0.375q0.03125 0.171875 0.0625 0.375q0.046875 0.1875 0.109375 0.421875q-0.765625 0.171875 -1.53125 0.34375q-0.75 0.15625 -1.53125 0.296875q-0.140625 -0.34375 -0.21875 -0.703125q-0.078125 -0.375 -0.140625 -0.84375l-0.1875 0q-0.4375 0.453125 -0.875 0.75q-0.421875 0.296875 -0.890625 0.484375q-0.46875 0.171875 -0.984375 0.25q-0.5 0.078125 -1.0625 0.078125q-0.84375 0 -1.578125 -0.203125q-0.734375 -0.203125 -1.28125 -0.625q-0.53125 -0.421875 -0.828125 -1.0625q-0.296875 -0.65625 -0.296875 -1.53125q0 -0.7500019 0.140625 -1.3281269q0.15625 -0.578125 0.4375 -1.03125q0.296875 -0.46875 0.6875 -0.8125q0.40625 -0.34375 0.875 -0.609375q0.96875 -0.515625 2.15625 -0.703125q1.1875 -0.1875 2.421875 -0.1875l1.0625 0l0 -1.609375q0 -0.46875 -0.140625 -0.734375q-0.140625 -0.265625 -0.390625 -0.390625q-0.234375 -0.140625 -0.5625 -0.1875q-0.3125 -0.046875 -0.6875 -0.046875q-1.0 0 -2.015625 0.265625q-1.015625 0.25 -1.953125 0.625l-0.75 -2.359375zm6.5 6.25l-0.234375 0q-0.890625 0.015625 -1.6875 0.140625q-0.796875 0.109375 -1.40625 0.390625q-0.59375 0.28125 -0.96875 0.75q-0.359375 0.46875 -0.359375 1.171875q0 0.7656269 0.453125 1.1875019q0.453125 0.421875 1.265625 0.421875q0.390625 0 0.796875 -0.09375q0.40625 -0.109375 0.796875 -0.296875q0.390625 -0.203125 0.734375 -0.484375q0.359375 -0.28125 0.609375 -0.6562519l0 -2.53125z" fill-rule="nonzero"/><path fill="#000000" fill-opacity="0.0" d="m98.00787 30.498688l217.29135 0l0 57.51181l-217.29135 0z" fill-rule="evenodd"/><path fill="#ffffff" d="m111.41412 44.324936l0 13.09375l-2.546875 0l0 -13.09375l2.546875 0zm5.9300995 5.234375q0.296875 -0.453125 0.625 -0.78125q0.328125 -0.34375 0.6875 -0.578125q0.375 -0.234375 0.8125 -0.34375q0.453125 -0.125 0.984375 -0.125q0.59375 0 1.0625 0.140625q0.46875 0.125 0.796875 0.375q0.34375 0.25 0.578125 0.625q0.234375 0.359375 0.375 0.828125q0.125 0.46875 0.171875 1.015625q0.0625 0.53125 0.0625 1.171875l0 5.53125l-2.484375 0l0 -6.265625q0 -0.78125 -0.375 -1.1875q-0.359375 -0.40625 -0.96875 -0.40625q-0.34375 0 -0.6875 0.171875q-0.328125 0.15625 -0.640625 0.421875q-0.3125 0.265625 -0.578125 0.609375q-0.25 0.328125 -0.46875 0.6875l0 5.96875l-2.484375 0l0 -5.84375q0 -0.734375 -0.015625 -1.21875q-0.015625 -0.5 -0.0625 -0.890625q-0.015625 -0.1875 -0.03125 -0.328125q-0.015625 -0.15625 -0.046875 -0.28125q-0.015625 -0.140625 -0.046875 -0.28125q-0.03125 -0.140625 -0.078125 -0.328125q0.59375 -0.15625 1.171875 -0.28125q0.59375 -0.125 1.203125 -0.234375q0.0625 0.203125 0.109375 0.390625q0.0625 0.171875 0.09375 0.390625q0.03125 0.21875 0.0625 0.46875q0.03125 0.25 0.0625 0.578125l0.109375 0zm9.797043 -1.953125q0 -0.96875 0.15625 -1.65625q0.171875 -0.6875 0.546875 -1.125q0.375 -0.453125 1.0 -0.65625q0.640625 -0.21875 1.59375 -0.21875q0.734375 0 1.59375 0.125q0.875 0.109375 1.84375 0.3125l-0.390625 1.71875q-0.8125 -0.140625 -1.421875 -0.234375q-0.59375 -0.109375 -1.046875 -0.109375q-0.4375 0 -0.71875 0.078125q-0.265625 0.078125 -0.421875 0.296875q-0.140625 0.203125 -0.1875 0.578125q-0.046875 0.375 -0.046875 0.96875l0 0.265625l3.046875 0l0 1.8125l-3.046875 0l0 5.828125l3.046875 0l0 1.828125l-7.125 0l0 -1.828125l1.578125 0l0 -5.828125l-1.578125 0l0 -1.8125l1.578125 0l0 -0.34375zm12.286499 0.125q1.1875 0 2.0625 0.375q0.875 0.375 1.4375 1.046875q0.578125 0.65625 0.859375 1.5625q0.28125 0.90625 0.28125 1.96875q0 1.0625 -0.28125 1.984375q-0.28125 0.90625 -0.859375 1.5625q-0.5625 0.65625 -1.4375 1.03125q-0.875 0.375 -2.0625 0.375q-1.1875 0 -2.0625 -0.375q-0.875 -0.375 -1.453125 -1.03125q-0.5625 -0.65625 -0.84375 -1.5625q-0.28125 -0.921875 -0.28125 -1.984375q0 -1.0625 0.28125 -1.96875q0.28125 -0.90625 0.84375 -1.5625q0.578125 -0.671875 1.453125 -1.046875q0.875 -0.375 2.0625 -0.375zm0 1.796875q-0.65625 0 -1.078125 0.25q-0.421875 0.234375 -0.65625 0.671875q-0.234375 0.421875 -0.328125 1.0q-0.078125 0.578125 -0.078125 1.234375q0 0.65625 0.078125 1.234375q0.09375 0.578125 0.328125 1.015625q0.234375 0.421875 0.65625 0.671875q0.421875 0.25 1.078125 0.25q0.65625 0 1.078125 -0.25q0.421875 -0.25 0.65625 -0.671875q0.234375 -0.4375 0.3125 -1.015625q0.09375 -0.578125 0.09375 -1.234375q0 -0.65625 -0.09375 -1.234375q-0.078125 -0.578125 -0.3125 -1.0q-0.234375 -0.4375 -0.65625 -0.671875q-0.421875 -0.25 -1.078125 -0.25zm9.64357 0.03125q0.328125 -0.46875 0.609375 -0.78125q0.28125 -0.3125 0.578125 -0.5q0.296875 -0.203125 0.59375 -0.3125q0.3125 -0.125 0.625 -0.171875q0.3125 -0.0625 0.609375 -0.0625q0.265625 0 0.5 0.03125q0.234375 0.03125 0.453125 0.078125q-0.03125 0.265625 -0.078125 0.546875q-0.046875 0.28125 -0.109375 0.578125q-0.046875 0.296875 -0.109375 0.578125q-0.0625 0.28125 -0.140625 0.53125q-0.515625 -0.109375 -0.90625 -0.171875q-0.375 -0.078125 -0.6875 -0.078125q-0.28125 0 -0.515625 0.078125q-0.21875 0.078125 -0.453125 0.28125q-0.234375 0.1875 -0.46875 0.5q-0.234375 0.3125 -0.546875 0.78125l0 5.953125l-2.484375 0l0 -5.84375q0 -0.53125 -0.015625 -0.984375q-0.015625 -0.453125 -0.046875 -0.859375q-0.015625 -0.40625 -0.078125 -0.765625q-0.046875 -0.375 -0.140625 -0.71875q0.59375 -0.15625 1.171875 -0.28125q0.59375 -0.125 1.203125 -0.234375q0.0625 0.203125 0.109375 0.390625q0.0625 0.171875 0.09375 0.390625q0.03125 0.21875 0.0625 0.46875q0.03125 0.25 0.0625 0.578125l0.109375 0zm14.622772 0.421875q0.296875 -0.59375 0.609375 -1.015625q0.328125 -0.421875 0.6875 -0.6875q0.375 -0.28125 0.796875 -0.40625q0.4375 -0.140625 0.984375 -0.140625q1.140625 0 1.78125 0.53125q0.65625 0.53125 0.9375 1.5625q0.234375 0.859375 0.234375 2.0625l0 5.53125l-2.5 0l0 -6.25q0 -0.359375 -0.0625 -0.625q-0.0625 -0.265625 -0.171875 -0.453125q-0.15625 -0.28125 -0.421875 -0.40625q-0.25 -0.125 -0.59375 -0.125q-0.34375 0 -0.65625 0.1875q-0.296875 0.171875 -0.578125 0.453125q-0.28125 0.265625 -0.515625 0.609375q-0.234375 0.328125 -0.421875 0.640625q0 0.109375 0 0.203125q0 0.09375 0 0.203125l0 5.5625l-2.5 0l0 -6.25q0 -0.359375 -0.0625 -0.625q-0.046875 -0.265625 -0.15625 -0.453125q-0.15625 -0.28125 -0.421875 -0.40625q-0.25 -0.125 -0.59375 -0.125q-0.328125 0 -0.640625 0.1875q-0.296875 0.171875 -0.578125 0.453125q-0.265625 0.265625 -0.5 0.609375q-0.234375 0.328125 -0.421875 0.640625l0 5.96875l-2.5 0l0 -5.84375q0 -0.53125 -0.015625 -0.984375q0 -0.453125 -0.03125 -0.859375q-0.03125 -0.40625 -0.09375 -0.765625q-0.046875 -0.375 -0.140625 -0.71875q0.59375 -0.15625 1.171875 -0.28125q0.59375 -0.125 1.203125 -0.234375q0.0625 0.203125 0.109375 0.390625q0.0625 0.171875 0.09375 0.390625q0.046875 0.21875 0.0625 0.46875q0.03125 0.25 0.0625 0.578125l0.109375 0q0.296875 -0.4375 0.59375 -0.765625q0.296875 -0.34375 0.625 -0.578125q0.34375 -0.234375 0.75 -0.359375q0.421875 -0.125 0.9375 -0.125q1.171875 0 1.828125 0.578125q0.671875 0.578125 0.921875 1.671875l0.078125 0zm8.847137 -1.578125q0.34375 -0.125 0.765625 -0.234375q0.4375 -0.125 0.921875 -0.21875q0.484375 -0.109375 1.0 -0.15625q0.53125 -0.0625 1.078125 -0.0625q0.75 0 1.40625 0.125q0.671875 0.109375 1.109375 0.390625q0.4375 0.265625 0.671875 0.734375q0.25 0.46875 0.25 1.1875l0 3.703125q0 0.625 0 1.125q0.015625 0.5 0.046875 0.96875q0.015625 0.171875 0.03125 0.3125q0.03125 0.140625 0.046875 0.28125q0.03125 0.125 0.0625 0.28125q0.03125 0.140625 0.078125 0.3125q-0.578125 0.125 -1.140625 0.25q-0.546875 0.109375 -1.125 0.21875q-0.09375 -0.25 -0.15625 -0.515625q-0.0625 -0.265625 -0.109375 -0.609375l-0.140625 0q-0.3125 0.328125 -0.640625 0.546875q-0.3125 0.21875 -0.65625 0.359375q-0.34375 0.125 -0.71875 0.171875q-0.375 0.0625 -0.78125 0.0625q-0.640625 0 -1.171875 -0.15625q-0.53125 -0.140625 -0.9375 -0.453125q-0.390625 -0.3125 -0.625 -0.78125q-0.21875 -0.484375 -0.21875 -1.140625q0 -0.53125 0.109375 -0.953125q0.125 -0.4375 0.328125 -0.765625q0.21875 -0.34375 0.5 -0.59375q0.296875 -0.265625 0.65625 -0.453125q0.703125 -0.390625 1.578125 -0.53125q0.875 -0.140625 1.796875 -0.140625l0.78125 0l0 -1.1875q0 -0.328125 -0.109375 -0.515625q-0.109375 -0.203125 -0.28125 -0.296875q-0.171875 -0.109375 -0.421875 -0.140625q-0.234375 -0.03125 -0.5 -0.03125q-0.734375 0 -1.5 0.1875q-0.75 0.1875 -1.421875 0.453125l-0.5625 -1.734375zm4.796875 4.609375l-0.1875 0q-0.640625 0 -1.234375 0.09375q-0.59375 0.078125 -1.046875 0.296875q-0.4375 0.203125 -0.703125 0.546875q-0.265625 0.34375 -0.265625 0.859375q0 0.578125 0.328125 0.890625q0.328125 0.3125 0.9375 0.3125q0.28125 0 0.578125 -0.078125q0.296875 -0.078125 0.59375 -0.21875q0.296875 -0.140625 0.546875 -0.34375q0.25 -0.21875 0.453125 -0.5l0 -1.859375zm8.737686 -7.234375l0 2.171875l3.1875 0l0 1.8125l-3.1875 0l0 4.546875q0 0.453125 0.03125 0.75q0.046875 0.28125 0.15625 0.453125q0.109375 0.171875 0.296875 0.234375q0.1875 0.0625 0.5 0.0625q0.28125 0 0.671875 -0.0625q0.390625 -0.0625 0.921875 -0.171875q0.046875 0.15625 0.109375 0.375q0.078125 0.21875 0.140625 0.453125q0.078125 0.234375 0.140625 0.453125q0.0625 0.203125 0.109375 0.375q-0.25 0.09375 -0.59375 0.171875q-0.34375 0.0625 -0.71875 0.109375q-0.375 0.0625 -0.765625 0.09375q-0.375 0.03125 -0.703125 0.03125q-0.328125 0 -0.640625 -0.03125q-0.296875 -0.03125 -0.578125 -0.09375q-0.28125 -0.0625 -0.515625 -0.171875q-0.234375 -0.109375 -0.40625 -0.28125q-0.40625 -0.390625 -0.53125 -1.078125q-0.125 -0.6875 -0.125 -1.765625l0 -4.453125l-1.375 0l0 -1.8125l1.375 0l0 -2.171875l2.5 0zm14.051102 2.171875l0 9.390625q0 1.078125 -0.34375 1.8125q-0.34375 0.75 -0.96875 1.203125q-0.625 0.46875 -1.5 0.671875q-0.859375 0.21875 -1.90625 0.21875q-0.8125 0 -1.65625 -0.140625q-0.828125 -0.140625 -1.53125 -0.421875q0.1875 -0.453125 0.390625 -0.890625q0.203125 -0.4375 0.40625 -0.875q0.65625 0.203125 1.328125 0.34375q0.671875 0.15625 1.3125 0.15625q0.171875 0 0.390625 -0.015625q0.21875 0 0.4375 -0.0625q0.21875 -0.046875 0.421875 -0.171875q0.203125 -0.109375 0.359375 -0.3125q0.171875 -0.1875 0.265625 -0.484375q0.109375 -0.296875 0.109375 -0.71875l0 -1.84375l-0.078125 0q-0.296875 0.453125 -0.625 0.796875q-0.328125 0.34375 -0.703125 0.578125q-0.359375 0.21875 -0.8125 0.328125q-0.453125 0.125 -0.984375 0.125q-0.90625 0 -1.484375 -0.28125q-0.578125 -0.28125 -0.9375 -0.8125q-0.34375 -0.546875 -0.5 -1.3125q-0.140625 -0.765625 -0.140625 -1.734375l0 -5.546875l2.5 0l0 6.265625q0 0.78125 0.359375 1.1875q0.375 0.40625 1.0 0.40625q0.359375 0 0.6875 -0.15625q0.328125 -0.171875 0.640625 -0.421875q0.3125 -0.265625 0.578125 -0.609375q0.265625 -0.34375 0.46875 -0.6875l0 -5.984375l2.515625 0zm5.589813 -3.65625l0 6.9375l3.796875 -3.5l1.390625 1.5l-3.375 3.109375l4.359375 5.078125l-3.046875 0l-3.125 -3.78125l0 3.78125l-2.5 0l0 -13.125l2.5 0zm8.054108 4.109375q0.34375 -0.125 0.765625 -0.234375q0.4375 -0.125 0.921875 -0.21875q0.484375 -0.109375 1.0 -0.15625q0.53125 -0.0625 1.078125 -0.0625q0.75 0 1.40625 0.125q0.671875 0.109375 1.109375 0.390625q0.4375 0.265625 0.671875 0.734375q0.25 0.46875 0.25 1.1875l0 3.703125q0 0.625 0 1.125q0.015625 0.5 0.046875 0.96875q0.015625 0.171875 0.03125 0.3125q0.03125 0.140625 0.046875 0.28125q0.03125 0.125 0.0625 0.28125q0.03125 0.140625 0.078125 0.3125q-0.578125 0.125 -1.140625 0.25q-0.546875 0.109375 -1.125 0.21875q-0.09375 -0.25 -0.15625 -0.515625q-0.0625 -0.265625 -0.109375 -0.609375l-0.140625 0q-0.3125 0.328125 -0.640625 0.546875q-0.3125 0.21875 -0.65625 0.359375q-0.34375 0.125 -0.71875 0.171875q-0.375 0.0625 -0.78125 0.0625q-0.640625 0 -1.171875 -0.15625q-0.53125 -0.140625 -0.9375 -0.453125q-0.390625 -0.3125 -0.625 -0.78125q-0.21875 -0.484375 -0.21875 -1.140625q0 -0.53125 0.109375 -0.953125q0.125 -0.4375 0.328125 -0.765625q0.21875 -0.34375 0.5 -0.59375q0.296875 -0.265625 0.65625 -0.453125q0.703125 -0.390625 1.578125 -0.53125q0.875 -0.140625 1.796875 -0.140625l0.78125 0l0 -1.1875q0 -0.328125 -0.109375 -0.515625q-0.109375 -0.203125 -0.28125 -0.296875q-0.171875 -0.109375 -0.421875 -0.140625q-0.234375 -0.03125 -0.5 -0.03125q-0.734375 0 -1.5 0.1875q-0.75 0.1875 -1.421875 0.453125l-0.5625 -1.734375zm4.796875 4.609375l-0.1875 0q-0.640625 0 -1.234375 0.09375q-0.59375 0.078125 -1.046875 0.296875q-0.4375 0.203125 -0.703125 0.546875q-0.265625 0.34375 -0.265625 0.859375q0 0.578125 0.328125 0.890625q0.328125 0.3125 0.9375 0.3125q0.28125 0 0.578125 -0.078125q0.296875 -0.078125 0.59375 -0.21875q0.296875 -0.140625 0.546875 -0.34375q0.25 -0.21875 0.453125 -0.5l0 -1.859375z" fill-rule="nonzero"/><path fill="#ffffff" d="m121.03912 62.95231l-1.28125 11.234375l-2.859375 0l-2.59375 -9.0l-2.578125 9.0l-2.859375 0l-1.28125 -11.234375l2.140625 0l0.921875 8.4375l0.015625 0l2.421875 -8.4375l2.453125 0l2.421875 8.4375l0.015625 0l0.921875 -8.4375l2.140625 0zm9.265625 3.109375l0 8.0625q0 0.921875 -0.296875 1.546875q-0.296875 0.640625 -0.828125 1.03125q-0.53125 0.40625 -1.28125 0.578125q-0.75 0.1875 -1.640625 0.1875q-0.703125 0 -1.421875 -0.125q-0.703125 -0.109375 -1.3125 -0.359375q0.15625 -0.390625 0.328125 -0.765625q0.171875 -0.375 0.359375 -0.75q0.5625 0.1875 1.140625 0.3125q0.578125 0.125 1.109375 0.125q0.15625 0 0.34375 -0.015625q0.1875 0 0.375 -0.046875q0.1875 -0.046875 0.359375 -0.15625q0.1875 -0.09375 0.3125 -0.265625q0.140625 -0.15625 0.21875 -0.421875q0.09375 -0.25 0.109375 -0.609375l0 -1.59375l-0.078125 0q-0.25 0.390625 -0.53125 0.6875q-0.28125 0.296875 -0.609375 0.5q-0.3125 0.1875 -0.703125 0.28125q-0.375 0.109375 -0.84375 0.109375q-0.765625 0 -1.265625 -0.234375q-0.5 -0.25 -0.796875 -0.703125q-0.296875 -0.46875 -0.421875 -1.125q-0.125 -0.65625 -0.125 -1.5l0 -4.75l2.140625 0l0 5.375q0 0.671875 0.3125 1.03125q0.3125 0.34375 0.859375 0.34375q0.296875 0 0.578125 -0.140625q0.28125 -0.140625 0.546875 -0.359375q0.265625 -0.234375 0.484375 -0.53125q0.234375 -0.296875 0.421875 -0.59375l0 -5.125l2.15625 0zm9.609375 -3.125l0 8.59375l0 0.34375q0 0.609375 0.03125 1.09375q0.046875 0.484375 0.1875 0.984375q-0.25 0.078125 -0.484375 0.140625q-0.234375 0.046875 -0.46875 0.09375q-0.234375 0.0625 -0.46875 0.109375q-0.234375 0.046875 -0.484375 0.078125q-0.0625 -0.15625 -0.109375 -0.3125q-0.046875 -0.15625 -0.078125 -0.328125q-0.03125 -0.171875 -0.0625 -0.375q-0.015625 -0.203125 -0.03125 -0.46875l-0.09375 0q-0.90625 1.484375 -2.5625 1.484375q-0.8125 0 -1.375 -0.3125q-0.5625 -0.328125 -0.921875 -0.875q-0.34375 -0.546875 -0.5 -1.25q-0.140625 -0.71875 -0.140625 -1.515625q0 -1.125 0.296875 -1.96875q0.296875 -0.859375 0.84375 -1.421875q0.546875 -0.578125 1.3125 -0.859375q0.765625 -0.296875 1.6875 -0.296875q0.328125 0 0.640625 0.03125q0.328125 0.03125 0.640625 0.078125l0 -3.046875l2.140625 0zm-2.109375 4.65625q-0.625 -0.15625 -1.171875 -0.15625q-0.453125 0 -0.859375 0.125q-0.390625 0.125 -0.6875 0.40625q-0.28125 0.28125 -0.4375 0.734375q-0.15625 0.4375 -0.15625 1.078125q0 0.671875 0.046875 1.234375q0.046875 0.546875 0.203125 0.953125q0.171875 0.390625 0.46875 0.625q0.3125 0.21875 0.828125 0.21875q0.359375 0 0.640625 -0.140625q0.28125 -0.15625 0.5 -0.421875q0.171875 -0.1875 0.3125 -0.421875q0.15625 -0.25 0.3125 -0.515625l0 -3.71875zm6.5546875 0.03125q-0.359375 0 -0.640625 -0.015625q-0.28125 -0.015625 -0.546875 -0.046875q-0.265625 -0.03125 -0.53125 -0.09375q-0.265625 -0.078125 -0.609375 -0.203125q0.109375 -0.390625 0.234375 -0.765625q0.125 -0.390625 0.234375 -0.75q0.375 0.09375 0.640625 0.15625q0.265625 0.0625 0.5 0.09375q0.25 0.03125 0.515625 0.046875q0.265625 0 0.640625 0l3.96875 0l0 1.1875l-3.859375 5.390625l3.9375 0l0 1.5625l-6.609375 0l0 -1.1875l3.859375 -5.375l-1.734375 0zm7.8828125 -5.53125q0.265625 0 0.5 0.109375q0.234375 0.09375 0.40625 0.28125q0.1875 0.171875 0.28125 0.40625q0.109375 0.234375 0.109375 0.5q0 0.28125 -0.109375 0.515625q-0.09375 0.234375 -0.28125 0.421875q-0.171875 0.171875 -0.40625 0.28125q-0.234375 0.09375 -0.5 0.09375q-0.28125 0 -0.515625 -0.09375q-0.234375 -0.109375 -0.421875 -0.28125q-0.171875 -0.1875 -0.28125 -0.421875q-0.09375 -0.234375 -0.09375 -0.515625q0 -0.265625 0.09375 -0.5q0.109375 -0.234375 0.28125 -0.40625q0.1875 -0.1875 0.421875 -0.28125q0.234375 -0.109375 0.515625 -0.109375zm1.0625 3.96875l0 8.125l-2.140625 0l0 -8.125l2.140625 0zm2.8828125 0.390625q0.28125 -0.109375 0.65625 -0.203125q0.375 -0.109375 0.78125 -0.1875q0.421875 -0.09375 0.875 -0.140625q0.453125 -0.046875 0.90625 -0.046875q0.65625 0 1.21875 0.109375q0.5625 0.09375 0.9375 0.328125q0.375 0.234375 0.578125 0.640625q0.21875 0.40625 0.21875 1.015625l0 3.171875q0 0.546875 0 0.96875q0.015625 0.421875 0.046875 0.828125q0.015625 0.15625 0.03125 0.28125q0.015625 0.109375 0.03125 0.234375q0.015625 0.109375 0.046875 0.234375q0.03125 0.125 0.0625 0.265625q-0.484375 0.109375 -0.96875 0.21875q-0.46875 0.109375 -0.96875 0.203125q-0.078125 -0.234375 -0.140625 -0.453125q-0.046875 -0.234375 -0.078125 -0.53125l-0.125 0q-0.265625 0.28125 -0.546875 0.46875q-0.265625 0.1875 -0.5625 0.3125q-0.296875 0.109375 -0.625 0.15625q-0.3125 0.046875 -0.671875 0.046875q-0.53125 0 -1.0 -0.140625q-0.453125 -0.125 -0.796875 -0.390625q-0.34375 -0.265625 -0.53125 -0.671875q-0.1875 -0.40625 -0.1875 -0.96875q0 -0.46875 0.09375 -0.828125q0.09375 -0.375 0.265625 -0.65625q0.1875 -0.296875 0.4375 -0.515625q0.25 -0.21875 0.5625 -0.375q0.609375 -0.328125 1.359375 -0.453125q0.75 -0.125 1.53125 -0.125l0.671875 0l0 -1.015625q0 -0.28125 -0.09375 -0.453125q-0.09375 -0.171875 -0.25 -0.25q-0.140625 -0.09375 -0.34375 -0.109375q-0.203125 -0.03125 -0.4375 -0.03125q-0.640625 0 -1.28125 0.15625q-0.640625 0.15625 -1.234375 0.390625l-0.46875 -1.484375zm4.109375 3.953125l-0.15625 0q-0.5625 0 -1.0625 0.078125q-0.5 0.078125 -0.890625 0.265625q-0.375 0.171875 -0.609375 0.46875q-0.234375 0.28125 -0.234375 0.734375q0 0.484375 0.28125 0.75q0.296875 0.265625 0.8125 0.265625q0.234375 0 0.484375 -0.0625q0.265625 -0.0625 0.515625 -0.1875q0.25 -0.125 0.46875 -0.296875q0.21875 -0.1875 0.390625 -0.421875l0 -1.59375zm7.0859375 -7.46875l0 3.96875l1.375 -0.765625l0 1.609375l-1.375 0.765625l0 5.671875l-2.140625 0l0 -4.453125l-1.375 0.765625l0 -1.625l1.375 -0.765625l0 -5.171875l2.140625 0zm14.1953125 0.015625l0 1.59375l-4.53125 0l0 2.546875l3.203125 0l0 1.609375l-3.203125 0l0 3.875l4.703125 0l0 1.609375l-6.890625 0l0 -11.234375l6.71875 0zm4.1640625 8.046875q0 0.640625 0.015625 1.078125q0.015625 0.4375 0.046875 0.765625q0.015625 0.171875 0.03125 0.3125q0.015625 0.125 0.03125 0.25q0.015625 0.109375 0.03125 0.234375q0.03125 0.125 0.078125 0.265625q-0.515625 0.15625 -1.03125 0.28125q-0.515625 0.109375 -1.0625 0.1875q-0.109375 -0.359375 -0.203125 -0.75q-0.078125 -0.390625 -0.078125 -0.859375l0 -9.828125l2.140625 0l0 8.0625zm9.0546875 2.8125q-0.328125 0.140625 -0.703125 0.25q-0.375 0.09375 -0.796875 0.15625q-0.40625 0.078125 -0.84375 0.109375q-0.421875 0.046875 -0.828125 0.046875q-2.046875 0 -3.109375 -0.984375q-1.046875 -1.0 -1.046875 -3.03125q0 -0.90625 0.203125 -1.71875q0.21875 -0.8125 0.6875 -1.421875q0.484375 -0.625 1.25 -0.984375q0.765625 -0.359375 1.890625 -0.359375q1.953125 0 2.90625 1.046875q0.96875 1.03125 0.96875 3.15625l0 0.609375l-5.78125 0q0.015625 0.53125 0.125 0.9375q0.109375 0.40625 0.359375 0.6875q0.265625 0.28125 0.671875 0.421875q0.421875 0.140625 1.046875 0.140625q0.546875 0 1.171875 -0.125q0.640625 -0.140625 1.328125 -0.40625l0.5 1.46875zm-1.5625 -4.515625q-0.0625 -1.921875 -1.734375 -1.921875q-0.875 0 -1.328125 0.5q-0.4375 0.5 -0.546875 1.421875l3.609375 0zm6.359375 -6.359375l0 5.9375l3.25 -3.0l1.1875 1.296875l-2.890625 2.65625l3.734375 4.359375l-2.609375 0l-2.671875 -3.25l0 3.25l-2.140625 0l0 -11.25l2.140625 0zm9.59375 1.265625l0 1.859375l2.734375 0l0 1.5625l-2.734375 0l0 3.890625q0 0.390625 0.03125 0.640625q0.03125 0.25 0.125 0.390625q0.09375 0.140625 0.25 0.203125q0.171875 0.0625 0.4375 0.0625q0.25 0 0.578125 -0.046875q0.328125 -0.0625 0.78125 -0.171875q0.046875 0.140625 0.109375 0.328125q0.0625 0.1875 0.109375 0.390625q0.0625 0.203125 0.109375 0.390625q0.0625 0.171875 0.109375 0.3125q-0.21875 0.078125 -0.515625 0.15625q-0.28125 0.0625 -0.609375 0.109375q-0.3125 0.046875 -0.640625 0.0625q-0.328125 0.03125 -0.625 0.03125q-0.265625 0 -0.53125 -0.03125q-0.265625 -0.015625 -0.515625 -0.078125q-0.234375 -0.046875 -0.4375 -0.140625q-0.203125 -0.109375 -0.34375 -0.25q-0.34375 -0.34375 -0.453125 -0.921875q-0.109375 -0.59375 -0.109375 -1.515625l0 -3.8125l-1.171875 0l0 -1.5625l1.171875 0l0 -1.859375l2.140625 0zm6.9140625 3.25q0.28125 -0.421875 0.515625 -0.6875q0.234375 -0.25 0.484375 -0.421875q0.265625 -0.171875 0.53125 -0.265625q0.265625 -0.109375 0.53125 -0.15625q0.265625 -0.046875 0.515625 -0.046875q0.21875 0 0.421875 0.03125q0.21875 0.03125 0.390625 0.0625q-0.015625 0.21875 -0.0625 0.46875q-0.03125 0.25 -0.078125 0.5q-0.046875 0.25 -0.109375 0.5q-0.0625 0.234375 -0.125 0.4375q-0.4375 -0.078125 -0.765625 -0.140625q-0.328125 -0.0625 -0.59375 -0.0625q-0.234375 0 -0.4375 0.078125q-0.203125 0.0625 -0.40625 0.234375q-0.1875 0.15625 -0.390625 0.421875q-0.203125 0.265625 -0.46875 0.671875l0 5.109375l-2.140625 0l0 -5.015625q0 -0.453125 -0.015625 -0.84375q0 -0.390625 -0.03125 -0.734375q-0.015625 -0.359375 -0.0625 -0.671875q-0.046875 -0.3125 -0.125 -0.609375q0.515625 -0.125 1.015625 -0.234375q0.5 -0.109375 1.015625 -0.203125q0.0625 0.171875 0.109375 0.328125q0.046875 0.15625 0.078125 0.34375q0.03125 0.1875 0.046875 0.40625q0.03125 0.21875 0.046875 0.5l0.109375 0zm12.5625 -1.390625l0 8.0625q0 0.921875 -0.296875 1.546875q-0.296875 0.640625 -0.828125 1.03125q-0.53125 0.40625 -1.28125 0.578125q-0.75 0.1875 -1.640625 0.1875q-0.703125 0 -1.421875 -0.125q-0.703125 -0.109375 -1.3125 -0.359375q0.15625 -0.390625 0.328125 -0.765625q0.171875 -0.375 0.359375 -0.75q0.5625 0.1875 1.140625 0.3125q0.578125 0.125 1.109375 0.125q0.15625 0 0.34375 -0.015625q0.1875 0 0.375 -0.046875q0.1875 -0.046875 0.359375 -0.15625q0.1875 -0.09375 0.3125 -0.265625q0.140625 -0.15625 0.21875 -0.421875q0.09375 -0.25 0.109375 -0.609375l0 -1.59375l-0.078125 0q-0.25 0.390625 -0.53125 0.6875q-0.28125 0.296875 -0.609375 0.5q-0.3125 0.1875 -0.703125 0.28125q-0.375 0.109375 -0.84375 0.109375q-0.765625 0 -1.265625 -0.234375q-0.5 -0.25 -0.796875 -0.703125q-0.296875 -0.46875 -0.421875 -1.125q-0.125 -0.65625 -0.125 -1.5l0 -4.75l2.140625 0l0 5.375q0 0.671875 0.3125 1.03125q0.3125 0.34375 0.859375 0.34375q0.296875 0 0.578125 -0.140625q0.28125 -0.140625 0.546875 -0.359375q0.265625 -0.234375 0.484375 -0.53125q0.234375 -0.296875 0.421875 -0.59375l0 -5.125l2.15625 0zm9.015625 7.8125q-0.328125 0.125 -0.71875 0.21875q-0.375 0.09375 -0.765625 0.15625q-0.390625 0.0625 -0.78125 0.09375q-0.375 0.03125 -0.703125 0.03125q-1.125 0 -1.90625 -0.265625q-0.78125 -0.265625 -1.265625 -0.78125q-0.484375 -0.53125 -0.703125 -1.296875q-0.203125 -0.765625 -0.203125 -1.75q0 -1.046875 0.265625 -1.859375q0.28125 -0.828125 0.8125 -1.390625q0.546875 -0.5625 1.34375 -0.859375q0.8125 -0.296875 1.890625 -0.296875q0.625 0 1.234375 0.109375q0.625 0.09375 1.1875 0.25l-0.53125 1.546875q-0.46875 -0.15625 -0.90625 -0.25q-0.4375 -0.09375 -0.890625 -0.09375q-0.609375 0 -1.03125 0.203125q-0.421875 0.203125 -0.703125 0.5625q-0.265625 0.34375 -0.40625 0.84375q-0.125 0.484375 -0.125 1.078125q0 1.359375 0.46875 2.03125q0.484375 0.65625 1.578125 0.65625q0.671875 0 1.234375 -0.140625q0.5625 -0.140625 1.125 -0.34375l0.5 1.546875zm3.7734375 -6.25q-0.359375 0 -0.640625 -0.015625q-0.28125 -0.015625 -0.546875 -0.046875q-0.265625 -0.03125 -0.53125 -0.09375q-0.265625 -0.078125 -0.609375 -0.203125q0.109375 -0.390625 0.234375 -0.765625q0.125 -0.390625 0.234375 -0.75q0.375 0.09375 0.640625 0.15625q0.265625 0.0625 0.5 0.09375q0.25 0.03125 0.515625 0.046875q0.265625 0 0.640625 0l3.96875 0l0 1.1875l-3.859375 5.390625l3.9375 0l0 1.5625l-6.609375 0l0 -1.1875l3.859375 -5.375l-1.734375 0zm8.8828125 -0.171875q0.265625 -0.390625 0.53125 -0.6875q0.28125 -0.296875 0.59375 -0.484375q0.328125 -0.203125 0.703125 -0.296875q0.375 -0.109375 0.84375 -0.109375q0.515625 0 0.90625 0.125q0.40625 0.109375 0.6875 0.328125q0.296875 0.203125 0.484375 0.53125q0.203125 0.3125 0.328125 0.703125q0.109375 0.40625 0.15625 0.875q0.046875 0.453125 0.046875 1.0l0 4.75l-2.140625 0l0 -5.375q0 -0.671875 -0.3125 -1.015625q-0.296875 -0.359375 -0.828125 -0.359375q-0.296875 0 -0.59375 0.140625q-0.28125 0.140625 -0.546875 0.375q-0.265625 0.234375 -0.5 0.53125q-0.21875 0.28125 -0.390625 0.578125l0 5.125l-2.140625 0l0 -5.015625q0 -0.625 -0.015625 -1.046875q-0.015625 -0.4375 -0.046875 -0.765625q-0.015625 -0.15625 -0.03125 -0.28125q-0.015625 -0.125 -0.03125 -0.234375q-0.015625 -0.125 -0.046875 -0.25q-0.03125 -0.125 -0.0625 -0.28125q0.5 -0.125 1.0 -0.234375q0.515625 -0.109375 1.03125 -0.203125q0.046875 0.171875 0.09375 0.328125q0.046875 0.15625 0.078125 0.34375q0.03125 0.1875 0.046875 0.40625q0.03125 0.21875 0.0625 0.5l0.09375 0zm14.9453125 -1.390625l0 8.0625q0 0.921875 -0.296875 1.546875q-0.296875 0.640625 -0.828125 1.03125q-0.53125 0.40625 -1.28125 0.578125q-0.75 0.1875 -1.640625 0.1875q-0.703125 0 -1.421875 -0.125q-0.703125 -0.109375 -1.3125 -0.359375q0.15625 -0.390625 0.328125 -0.765625q0.171875 -0.375 0.359375 -0.75q0.5625 0.1875 1.140625 0.3125q0.578125 0.125 1.109375 0.125q0.15625 0 0.34375 -0.015625q0.1875 0 0.375 -0.046875q0.1875 -0.046875 0.359375 -0.15625q0.1875 -0.09375 0.3125 -0.265625q0.140625 -0.15625 0.21875 -0.421875q0.09375 -0.25 0.109375 -0.609375l0 -1.59375l-0.078125 0q-0.25 0.390625 -0.53125 0.6875q-0.28125 0.296875 -0.609375 0.5q-0.3125 0.1875 -0.703125 0.28125q-0.375 0.109375 -0.84375 0.109375q-0.765625 0 -1.265625 -0.234375q-0.5 -0.25 -0.796875 -0.703125q-0.296875 -0.46875 -0.421875 -1.125q-0.125 -0.65625 -0.125 -1.5l0 -4.75l2.140625 0l0 5.375q0 0.671875 0.3125 1.03125q0.3125 0.34375 0.859375 0.34375q0.296875 0 0.578125 -0.140625q0.28125 -0.140625 0.546875 -0.359375q0.265625 -0.234375 0.484375 -0.53125q0.234375 -0.296875 0.421875 -0.59375l0 -5.125l2.15625 0z" fill-rule="nonzero"/></g></svg>