<svg version="1.1" viewBox="0.0 0.0 400.0 88.0" fill="none" stroke="none" stroke-linecap="square" stroke-miterlimit="10" xmlns:xlink="http://www.w3.org/1999/xlink" xmlns="http://www.w3.org/2000/svg"><clipPath id="p.0"><path d="m0 0l400.0 0l0 88.0l-400.0 0l0 -88.0z" clip-rule="nonzero"/></clipPath><g clip-path="url(#p.0)"><path fill="#000000" fill-opacity="0.0" d="m0 0l400.0 0l0 88.0l-400.0 0z" fill-rule="evenodd"/><path fill="#003c7d" d="m53.375328 46.553806l0 0c0 -15.907541 12.423218 -28.80315 27.748032 -28.80315l0 0c7.3592377 0 14.417053 3.0346088 19.62082 8.436247c5.203766 5.401638 8.127213 12.727831 8.127213 20.366903l0 0c0 15.907539 -12.423218 28.80315 -27.748032 28.80315l0 0c-15.324814 0 -27.748032 -12.895611 -27.748032 -28.80315z" fill-rule="evenodd"/><path fill="#000000" fill-opacity="0.0" d="m148.45932 -24.889763l126.86615 0l0 42.015747l-126.86615 0z" fill-rule="evenodd"/><path fill="#ffffff" d="m126.43044 10.572179l1.5748062 0l0 68.28346l-1.5748062 0z" fill-rule="evenodd"/><path stroke="#ffffff" stroke-width="1.0" stroke-linejoin="round" stroke-linecap="butt" d="m126.43044 10.572179l1.5748062 0l0 68.28346l-1.5748062 0z" fill-rule="evenodd"/><path fill="#000000" fill-opacity="0.0" d="m132.44882 5.782152l220.6929 0l0 51.716537l-220.6929 0z" fill-rule="evenodd"/><path fill="#ffffff" d="m143.57382 21.9134l4.171875 0l0 18.468752l-4.171875 0l0 -18.468752zm8.157715 4.921875q1.015625 -0.28125 2.609375 -0.53125q1.609375 -0.265625 3.375 -0.265625q1.78125 0 2.96875 0.46875q1.1875 0.46875 1.875 1.328125q0.6875 0.84375 0.984375 2.015625q0.296875 1.171875 0.296875 2.609377l0 7.921875l-3.96875 0l0 -7.4375q0 -1.9218769 -0.515625 -2.718752q-0.5 -0.796875 -1.890625 -0.796875q-0.421875 0 -0.90625 0.046875q-0.484375 0.03125 -0.84375 0.078125l0 10.828127l-3.984375 0l0 -13.546877zm21.778595 -7.140625q1.125 0 2.046875 0.234375q0.9375 0.21875 1.453125 0.4375l-0.78125 3.171875q-0.53125 -0.25 -1.15625 -0.359375q-0.625 -0.125 -1.15625 -0.125q-0.71875 0 -1.21875 0.203125q-0.484375 0.203125 -0.765625 0.546875q-0.28125 0.34375 -0.40625 0.828125q-0.109375 0.46875 -0.109375 1.03125l0 0.703125l4.90625 0l0 3.296875l-4.90625 0l0 10.718752l-3.984375 0l0 -14.765627q0 -2.71875 1.53125 -4.3125q1.546875 -1.609375 4.546875 -1.609375zm18.082443 13.656252q0 1.640625 -0.484375 3.015625q-0.484375 1.375 -1.390625 2.359375q-0.90625 0.96875 -2.171875 1.5q-1.265625 0.53125 -2.828125 0.53125q-1.546875 0 -2.8125 -0.53125q-1.265625 -0.53125 -2.171875 -1.5q-0.90625 -0.984375 -1.421875 -2.359375q-0.5 -1.375 -0.5 -3.015625q0 -1.6562519 0.515625 -3.015627q0.515625 -1.359375 1.4375 -2.3125q0.921875 -0.96875 2.1875 -1.5q1.265625 -0.53125 2.765625 -0.53125q1.515625 0 2.78125 0.53125q1.265625 0.53125 2.171875 1.5q0.90625 0.953125 1.40625 2.3125q0.515625 1.359375 0.515625 3.015627zm-4.0625 0q0 -1.8437519 -0.734375 -2.890627q-0.71875 -1.0625 -2.078125 -1.0625q-1.359375 0 -2.109375 1.0625q-0.75 1.046875 -0.75 2.890627q0 1.828125 0.75 2.921875q0.75 1.078125 2.109375 1.078125q1.359375 0 2.078125 -1.078125q0.734375 -1.09375 0.734375 -2.921875zm15.570908 -3.468752q-0.53125 -0.140625 -1.25 -0.28125q-0.71875 -0.140625 -1.546875 -0.140625q-0.375 0 -0.890625 0.0625q-0.515625 0.0625 -0.78125 0.140625l0 10.718752l-3.984375 0l0 -13.281252q1.078125 -0.359375 2.53125 -0.6875q1.453125 -0.34375 3.234375 -0.34375q0.3125 0 0.765625 0.046875q0.453125 0.03125 0.90625 0.109375q0.453125 0.0625 0.90625 0.15625q0.453125 0.078125 0.78125 0.21875l-0.671875 3.28125zm10.498901 3.062502q0 -1.9218769 -0.5 -2.718752q-0.484375 -0.796875 -1.671875 -0.796875q-0.375 0 -0.78125 0.046875q-0.40625 0.03125 -0.765625 0.078125l0 10.828127l-3.984375 0l0 -13.546877q0.515625 -0.125 1.1875 -0.265625q0.6875 -0.15625 1.4375 -0.265625q0.765625 -0.125 1.5625 -0.1875q0.796875 -0.078125 1.578125 -0.078125q1.515625 0 2.453125 0.390625q0.953125 0.390625 1.578125 0.921875q0.84375 -0.609375 1.953125 -0.953125q1.109375 -0.359375 2.03125 -0.359375q1.6875 0 2.765625 0.46875q1.078125 0.46875 1.71875 1.328125q0.640625 0.84375 0.875 2.015625q0.25 1.171875 0.25 2.609377l0 7.921875l-3.984375 0l0 -7.4375q0 -1.9218769 -0.5 -2.718752q-0.484375 -0.796875 -1.671875 -0.796875q-0.328125 0 -0.90625 0.15625q-0.5625 0.15625 -0.9375 0.40625q0.1875 0.609375 0.234375 1.296875q0.0625 0.671875 0.0625 1.4375019l0 7.65625l-3.984375 0l0 -7.4375zm20.63385 4.671875q0.59375 0 1.125 -0.03125q0.53125 -0.03125 0.859375 -0.078125l0 -3.015625q-0.25 -0.046875 -0.734375 -0.09375q-0.46875 -0.0625 -0.875 -0.0625q-0.5625 0 -1.0625 0.0625q-0.484375 0.0625 -0.859375 0.25q-0.375 0.1875 -0.59375 0.515625q-0.203125 0.3125 -0.203125 0.796875q0 0.9375 0.625 1.296875q0.625 0.359375 1.71875 0.359375zm-0.3125 -11.625002q1.75 0 2.921875 0.40625q1.1875 0.390625 1.890625 1.140625q0.703125 0.734375 1.0 1.8125q0.296875 1.0625 0.296875 2.375l0 8.250002q-0.859375 0.1875 -2.390625 0.4375q-1.515625 0.265625 -3.671875 0.265625q-1.359375 0 -2.46875 -0.25q-1.09375 -0.234375 -1.90625 -0.78125q-0.796875 -0.546875 -1.21875 -1.421875q-0.421875 -0.875 -0.421875 -2.15625q0 -1.234375 0.484375 -2.078125q0.5 -0.859375 1.328125 -1.359375q0.828125 -0.515625 1.890625 -0.7343769q1.0625 -0.234375 2.203125 -0.234375q0.78125 0 1.375 0.078125q0.609375 0.0625 0.984375 0.15625l0 -0.359375q0 -1.015625 -0.625 -1.625q-0.609375 -0.625 -2.125 -0.625q-1.015625 0 -2.0 0.15625q-0.984375 0.140625 -1.703125 0.40625l-0.515625 -3.203125q0.34375 -0.09375 0.859375 -0.21875q0.53125 -0.125 1.140625 -0.21875q0.609375 -0.09375 1.28125 -0.15625q0.6875 -0.0625 1.390625 -0.0625zm9.56897 -3.125l3.96875 -0.640625l0 4.140625l4.765625 0l0 3.296875l-4.765625 0l0 4.937502q0 1.25 0.4375 2.0q0.4375 0.75 1.78125 0.75q0.640625 0 1.3125 -0.125q0.6875 -0.125 1.234375 -0.328125l0.5625 3.078125q-0.71875 0.296875 -1.59375 0.5q-0.875 0.21875 -2.15625 0.21875q-1.625 0 -2.703125 -0.4375q-1.0625 -0.4375 -1.703125 -1.21875q-0.640625 -0.78125 -0.890625 -1.90625q-0.25 -1.125 -0.25 -2.484375l0 -11.781252zm24.680115 3.5q-1.203125 4.046875 -2.515625 7.593752q-1.296875 3.546875 -2.84375 6.875q-0.5625 1.203125 -1.125 2.03125q-0.546875 0.84375 -1.21875 1.390625q-0.671875 0.546875 -1.515625 0.796875q-0.828125 0.265625 -1.953125 0.265625q-0.921875 0 -1.71875 -0.1875q-0.78125 -0.171875 -1.28125 -0.375l0.6875 -3.171875q0.609375 0.203125 1.09375 0.28125q0.484375 0.09375 1.015625 0.09375q1.0625 0 1.625 -0.578125q0.578125 -0.578125 0.984375 -1.59375q-1.359375 -2.65625 -2.71875 -5.96875q-1.359375 -3.328127 -2.5625 -7.453127l4.21875 0q0.265625 1.03125 0.625 2.25q0.359375 1.203125 0.75 2.453125q0.40625 1.2343769 0.8125 2.406252q0.421875 1.171875 0.796875 2.140625q0.34375 -0.96875 0.71875 -2.140625q0.375 -1.171875 0.734375 -2.406252q0.359375 -1.25 0.6875 -2.453125q0.328125 -1.21875 0.59375 -2.25l4.109375 0zm6.112152 5.0625q0.578125 -0.640625 1.203125 -1.328125q0.625 -0.703125 1.203125 -1.375q0.59375 -0.6875 1.109375 -1.296875q0.53125 -0.609375 0.90625 -1.0625l4.71875 0q-1.421875 1.625 -2.765625 3.109375q-1.34375 1.46875 -2.9375 3.046877q0.796875 0.71875 1.640625 1.71875q0.859375 1.0 1.65625 2.0625q0.796875 1.0625 1.46875 2.140625q0.671875 1.0625 1.125 1.9375l-4.5625 0q-0.421875 -0.6875 -0.96875 -1.53125q-0.546875 -0.84375 -1.171875 -1.671875q-0.609375 -0.84375 -1.296875 -1.609375q-0.671875 -0.78125 -1.328125 -1.3125l0 6.125l-3.984375 0l0 -20.046877l3.984375 -0.640625l0 11.734375zm16.542267 6.187502q0.59375 0 1.125 -0.03125q0.53125 -0.03125 0.859375 -0.078125l0 -3.015625q-0.25 -0.046875 -0.734375 -0.09375q-0.46875 -0.0625 -0.875 -0.0625q-0.5625 0 -1.0625 0.0625q-0.484375 0.0625 -0.859375 0.25q-0.375 0.1875 -0.59375 0.515625q-0.203125 0.3125 -0.203125 0.796875q0 0.9375 0.625 1.296875q0.625 0.359375 1.71875 0.359375zm-0.3125 -11.625002q1.75 0 2.921875 0.40625q1.1875 0.390625 1.890625 1.140625q0.703125 0.734375 1.0 1.8125q0.296875 1.0625 0.296875 2.375l0 8.250002q-0.859375 0.1875 -2.390625 0.4375q-1.515625 0.265625 -3.671875 0.265625q-1.359375 0 -2.46875 -0.25q-1.09375 -0.234375 -1.90625 -0.78125q-0.796875 -0.546875 -1.21875 -1.421875q-0.421875 -0.875 -0.421875 -2.15625q0 -1.234375 0.484375 -2.078125q0.5 -0.859375 1.328125 -1.359375q0.828125 -0.515625 1.890625 -0.7343769q1.0625 -0.234375 2.203125 -0.234375q0.78125 0 1.375 0.078125q0.609375 0.0625 0.984375 0.15625l0 -0.359375q0 -1.015625 -0.625 -1.625q-0.609375 -0.625 -2.125 -0.625q-1.015625 0 -2.0 0.15625q-0.984375 0.140625 -1.703125 0.40625l-0.515625 -3.203125q0.34375 -0.09375 0.859375 -0.21875q0.53125 -0.125 1.140625 -0.21875q0.609375 -0.09375 1.28125 -0.15625q0.6875 -0.0625 1.390625 -0.0625z" fill-rule="nonzero"/><path fill="#000000" fill-opacity="0.0" d="m133.76903 38.593174l220.69292 0l0 43.62205l-220.69292 0z" fill-rule="evenodd"/><path fill="#ffffff" d="m153.67528 54.418175q0.234375 0.8125 0.515625 1.84375q0.296875 1.03125 0.625 2.140625q0.328125 1.09375 0.671875 2.203125q0.34375 1.09375 0.65625 2.03125q0.265625 -1.03125 0.53125 -2.21875q0.28125 -1.203125 0.515625 -2.484375q0.234375 -1.28125 0.46875 -2.546875q0.234375 -1.28125 0.421875 -2.453125l3.25 0q-0.703125 3.484375 -1.609375 7.0625q-0.90625 3.578125 -1.96875 6.796875l-2.859375 0q-0.703125 -1.921875 -1.375 -4.03125q-0.65625 -2.109375 -1.296875 -4.234375q-0.640625 2.125 -1.28125 4.234375q-0.625 2.109375 -1.328125 4.03125l-2.859375 0q-1.0625 -3.21875 -1.984375 -6.796875q-0.90625 -3.578125 -1.59375 -7.0625l3.375 0q0.203125 1.171875 0.4375 2.453125q0.234375 1.265625 0.5 2.546875q0.265625 1.28125 0.53125 2.484375q0.265625 1.1875 0.546875 2.21875q0.359375 -0.984375 0.703125 -2.078125q0.34375 -1.109375 0.65625 -2.203125q0.328125 -1.109375 0.59375 -2.125q0.265625 -1.015625 0.484375 -1.8125l2.671875 0zm19.028107 1.859375q-0.890625 3.03125 -1.875 5.703125q-0.984375 2.65625 -2.140625 5.15625q-0.421875 0.890625 -0.84375 1.515625q-0.421875 0.640625 -0.921875 1.046875q-0.5 0.40625 -1.125 0.59375q-0.625 0.203125 -1.46875 0.203125q-0.703125 0 -1.296875 -0.140625q-0.578125 -0.125 -0.96875 -0.28125l0.53125 -2.375q0.453125 0.15625 0.8125 0.21875q0.359375 0.0625 0.765625 0.0625q0.796875 0 1.21875 -0.4375q0.4375 -0.4375 0.734375 -1.1875q-1.015625 -2.0 -2.046875 -4.484375q-1.015625 -2.5 -1.90625 -5.59375l3.15625 0q0.203125 0.78125 0.46875 1.6875q0.265625 0.90625 0.5625 1.84375q0.3125 0.921875 0.609375 1.8125q0.3125 0.875 0.59375 1.59375q0.265625 -0.71875 0.546875 -1.59375q0.28125 -0.890625 0.546875 -1.8125q0.265625 -0.9375 0.515625 -1.84375q0.25 -0.90625 0.453125 -1.6875l3.078125 0zm3.8631134 5.171875q0 1.390625 0.625 2.234375q0.625 0.828125 1.84375 0.828125q0.390625 0 0.734375 -0.03125q0.34375 -0.03125 0.5625 -0.0625l0 -5.421875q-0.28125 -0.1875 -0.734375 -0.296875q-0.453125 -0.125 -0.90625 -0.125q-2.125 0 -2.125 2.875zm6.75 5.0q-0.40625 0.125 -0.9375 0.234375q-0.515625 0.109375 -1.09375 0.1875q-0.5625 0.078125 -1.15625 0.125q-0.578125 0.0625 -1.125 0.0625q-1.296875 0 -2.3125 -0.375q-1.015625 -0.390625 -1.71875 -1.09375q-0.703125 -0.71875 -1.078125 -1.71875q-0.359375 -1.015625 -0.359375 -2.28125q0 -1.28125 0.3125 -2.3125q0.328125 -1.03125 0.921875 -1.75q0.59375 -0.71875 1.46875 -1.09375q0.875 -0.375 1.984375 -0.375q0.625 0 1.109375 0.125q0.5 0.109375 1.0 0.328125l0 -4.765625l2.984375 -0.46875l0 15.171875zm10.689362 -8.171875q-0.359375 0.390625 -0.96875 1.078125q-0.609375 0.671875 -1.3125 1.5q-0.703125 0.8125 -1.40625 1.71875q-0.703125 0.90625 -1.296875 1.734375l5.09375 0l0 2.484375l-8.703125 0l0 -1.765625q0.421875 -0.71875 1.0 -1.546875q0.59375 -0.828125 1.234375 -1.65625q0.65625 -0.84375 1.296875 -1.640625q0.640625 -0.796875 1.1875 -1.4375l-4.484375 0l0 -2.46875l8.359375 0l0 2.0zm5.0781097 8.515625l-2.96875 0l0 -10.515625l2.96875 0l0 10.515625zm0.28125 -13.5625q0 0.828125 -0.53125 1.296875q-0.53125 0.46875 -1.25 0.46875q-0.71875 0 -1.25 -0.46875q-0.53125 -0.46875 -0.53125 -1.296875q0 -0.8125 0.53125 -1.28125q0.53125 -0.46875 1.25 -0.46875q0.71875 0 1.25 0.46875q0.53125 0.46875 0.53125 1.28125zm6.545624 11.484375q0.4375 0 0.828125 -0.015625q0.40625 -0.03125 0.65625 -0.0625l0 -2.265625q-0.1875 -0.03125 -0.546875 -0.078125q-0.359375 -0.046875 -0.65625 -0.046875q-0.421875 0 -0.796875 0.0625q-0.359375 0.046875 -0.640625 0.1875q-0.28125 0.140625 -0.453125 0.375q-0.15625 0.234375 -0.15625 0.609375q0 0.6875 0.46875 0.96875q0.46875 0.265625 1.296875 0.265625zm-0.234375 -8.71875q1.3125 0 2.1875 0.296875q0.890625 0.296875 1.40625 0.859375q0.53125 0.5625 0.75 1.359375q0.234375 0.796875 0.234375 1.78125l0 6.203125q-0.640625 0.140625 -1.78125 0.328125q-1.140625 0.1875 -2.765625 0.1875q-1.015625 0 -1.84375 -0.1875q-0.828125 -0.171875 -1.4375 -0.578125q-0.59375 -0.40625 -0.921875 -1.0625q-0.3125 -0.671875 -0.3125 -1.625q0 -0.921875 0.359375 -1.5625q0.375 -0.640625 1.0 -1.015625q0.625 -0.390625 1.421875 -0.5625q0.796875 -0.171875 1.65625 -0.171875q0.578125 0 1.03125 0.0625q0.453125 0.046875 0.734375 0.125l0 -0.28125q0 -0.765625 -0.46875 -1.21875q-0.453125 -0.453125 -1.59375 -0.453125q-0.765625 0 -1.515625 0.109375q-0.734375 0.109375 -1.265625 0.296875l-0.375 -2.390625q0.25 -0.078125 0.640625 -0.171875q0.390625 -0.09375 0.84375 -0.15625q0.46875 -0.078125 0.96875 -0.125q0.515625 -0.046875 1.046875 -0.046875zm5.6693573 2.9375l2.140625 -1.0625l0 -6.125l2.984375 -0.46875l0 5.109375l1.421875 -0.71875l0.890625 1.84375l-2.3125 1.15625l0 4.0625q0 0.40625 0.0625 0.734375q0.0625 0.3125 0.21875 0.53125q0.171875 0.21875 0.484375 0.359375q0.328125 0.140625 0.875 0.171875l-0.421875 2.46875q-1.296875 -0.015625 -2.109375 -0.28125q-0.8125 -0.265625 -1.28125 -0.734375q-0.46875 -0.46875 -0.640625 -1.140625q-0.171875 -0.671875 -0.171875 -1.5l0 -3.1875l-1.234375 0.625l-0.90625 -1.84375zm13.876877 7.859375l0 -13.859375l9.359375 0l0 2.625l-6.234375 0l0 2.71875l5.546875 0l0 2.5625l-5.546875 0l0 3.328125l6.703125 0l0 2.625l-9.828125 0zm16.119995 0.203125q-1.296875 -0.015625 -2.109375 -0.28125q-0.796875 -0.265625 -1.28125 -0.734375q-0.46875 -0.46875 -0.640625 -1.140625q-0.15625 -0.671875 -0.15625 -1.5l0 -11.59375l2.96875 -0.46875l0 11.453125q0 0.40625 0.0625 0.734375q0.0625 0.3125 0.234375 0.53125q0.171875 0.21875 0.484375 0.359375q0.328125 0.140625 0.859375 0.171875l-0.421875 2.46875zm1.6324921 -5.390625q0 -1.390625 0.421875 -2.4375q0.4375 -1.0625 1.125 -1.75q0.703125 -0.703125 1.609375 -1.0625q0.921875 -0.359375 1.875 -0.359375q2.25 0 3.546875 1.375q1.296875 1.359375 1.296875 4.015625q0 0.265625 -0.03125 0.578125q-0.015625 0.3125 -0.03125 0.546875l-6.765625 0q0.109375 0.921875 0.859375 1.46875q0.765625 0.53125 2.046875 0.53125q0.828125 0 1.609375 -0.140625q0.796875 -0.15625 1.296875 -0.375l0.390625 2.421875q-0.234375 0.109375 -0.640625 0.234375q-0.390625 0.125 -0.890625 0.203125q-0.484375 0.09375 -1.046875 0.15625q-0.5625 0.0625 -1.125 0.0625q-1.40625 0 -2.46875 -0.421875q-1.046875 -0.421875 -1.734375 -1.140625q-0.6875 -0.734375 -1.015625 -1.734375q-0.328125 -1.0 -0.328125 -2.171875zm7.0 -1.125q-0.03125 -0.390625 -0.140625 -0.75q-0.109375 -0.359375 -0.34375 -0.640625q-0.21875 -0.28125 -0.578125 -0.453125q-0.34375 -0.1875 -0.859375 -0.1875q-0.5 0 -0.859375 0.171875q-0.359375 0.171875 -0.609375 0.453125q-0.234375 0.28125 -0.375 0.65625q-0.125 0.359375 -0.1875 0.75l3.953125 0zm8.148743 -0.40625q0.4375 -0.484375 0.90625 -1.0q0.484375 -0.515625 0.921875 -1.03125q0.4375 -0.515625 0.828125 -0.96875q0.390625 -0.46875 0.671875 -0.796875l3.53125 0q-1.046875 1.21875 -2.0625 2.328125q-1.015625 1.109375 -2.21875 2.28125q0.609375 0.546875 1.25 1.296875q0.640625 0.75 1.234375 1.546875q0.609375 0.796875 1.109375 1.609375q0.5 0.796875 0.828125 1.453125l-3.421875 0q-0.3125 -0.515625 -0.734375 -1.140625q-0.40625 -0.640625 -0.859375 -1.265625q-0.453125 -0.640625 -0.96875 -1.21875q-0.515625 -0.578125 -1.015625 -0.96875l0 4.59375l-2.96875 0l0 -15.046875l2.96875 -0.46875l0 8.796875zm8.341858 -6.421875l2.984375 -0.484375l0 3.109375l3.578125 0l0 2.46875l-3.578125 0l0 3.703125q0 0.9375 0.328125 1.5q0.328125 0.5625 1.328125 0.5625q0.484375 0 0.984375 -0.078125q0.515625 -0.09375 0.9375 -0.265625l0.421875 2.328125q-0.546875 0.21875 -1.203125 0.375q-0.65625 0.15625 -1.625 0.15625q-1.21875 0 -2.015625 -0.328125q-0.796875 -0.328125 -1.28125 -0.90625q-0.46875 -0.59375 -0.671875 -1.4375q-0.1875 -0.84375 -0.1875 -1.859375l0 -8.84375zm15.317505 5.265625q-0.390625 -0.109375 -0.9375 -0.21875q-0.53125 -0.109375 -1.15625 -0.109375q-0.28125 0 -0.671875 0.0625q-0.390625 0.046875 -0.59375 0.09375l0 8.046875l-2.96875 0l0 -9.953125q0.796875 -0.28125 1.875 -0.53125q1.09375 -0.25 2.4375 -0.25q0.234375 0 0.578125 0.03125q0.34375 0.015625 0.671875 0.078125q0.34375 0.046875 0.6875 0.125q0.34375 0.0625 0.578125 0.15625l-0.5 2.46875zm12.059967 -2.640625q-0.890625 3.03125 -1.875 5.703125q-0.984375 2.65625 -2.140625 5.15625q-0.421875 0.890625 -0.84375 1.515625q-0.421875 0.640625 -0.921875 1.046875q-0.5 0.40625 -1.125 0.59375q-0.625 0.203125 -1.46875 0.203125q-0.703125 0 -1.296875 -0.140625q-0.578125 -0.125 -0.96875 -0.28125l0.53125 -2.375q0.453125 0.15625 0.8125 0.21875q0.359375 0.0625 0.765625 0.0625q0.796875 0 1.21875 -0.4375q0.4375 -0.4375 0.734375 -1.1875q-1.015625 -2.0 -2.046875 -4.484375q-1.015625 -2.5 -1.90625 -5.59375l3.15625 0q0.203125 0.78125 0.46875 1.6875q0.265625 0.90625 0.5625 1.84375q0.3125 0.921875 0.609375 1.8125q0.3125 0.875 0.59375 1.59375q0.265625 -0.71875 0.546875 -1.59375q0.28125 -0.890625 0.546875 -1.8125q0.265625 -0.9375 0.515625 -1.84375q0.25 -0.90625 0.453125 -1.6875l3.078125 0zm0.83187866 5.25q0 -1.140625 0.359375 -2.140625q0.375 -1.015625 1.078125 -1.765625q0.703125 -0.75 1.703125 -1.1875q1.0 -0.4375 2.265625 -0.4375q0.84375 0 1.546875 0.15625q0.703125 0.140625 1.359375 0.421875l-0.625 2.375q-0.40625 -0.15625 -0.90625 -0.265625q-0.5 -0.125 -1.125 -0.125q-1.328125 0 -1.984375 0.828125q-0.640625 0.8125 -0.640625 2.140625q0 1.421875 0.609375 2.203125q0.609375 0.78125 2.140625 0.78125q0.53125 0 1.140625 -0.09375q0.625 -0.109375 1.15625 -0.328125l0.421875 2.4375q-0.53125 0.21875 -1.3125 0.375q-0.78125 0.171875 -1.71875 0.171875q-1.4375 0 -2.484375 -0.421875q-1.03125 -0.4375 -1.703125 -1.171875q-0.671875 -0.75 -0.984375 -1.75q-0.296875 -1.015625 -0.296875 -2.203125zm18.390594 -3.25q-0.359375 0.390625 -0.96875 1.078125q-0.609375 0.671875 -1.3125 1.5q-0.703125 0.8125 -1.40625 1.71875q-0.703125 0.90625 -1.296875 1.734375l5.09375 0l0 2.484375l-8.703125 0l0 -1.765625q0.421875 -0.71875 1.0 -1.546875q0.59375 -0.828125 1.234375 -1.65625q0.65625 -0.84375 1.296875 -1.640625q0.640625 -0.796875 1.1875 -1.4375l-4.484375 0l0 -2.46875l8.359375 0l0 2.0zm2.109375 -1.640625q0.75 -0.21875 1.953125 -0.40625q1.203125 -0.203125 2.515625 -0.203125q1.34375 0 2.234375 0.359375q0.890625 0.34375 1.40625 0.984375q0.53125 0.640625 0.75 1.53125q0.21875 0.875 0.21875 1.953125l0 5.9375l-2.984375 0l0 -5.578125q0 -1.4375 -0.390625 -2.03125q-0.375 -0.609375 -1.40625 -0.609375q-0.328125 0 -0.6875 0.03125q-0.359375 0.03125 -0.640625 0.0625l0 8.125l-2.96875 0l0 -10.15625zm20.788086 -0.359375q-0.890625 3.03125 -1.875 5.703125q-0.984375 2.65625 -2.140625 5.15625q-0.421875 0.890625 -0.84375 1.515625q-0.421875 0.640625 -0.921875 1.046875q-0.5 0.40625 -1.125 0.59375q-0.625 0.203125 -1.46875 0.203125q-0.703125 0 -1.296875 -0.140625q-0.578125 -0.125 -0.96875 -0.28125l0.53125 -2.375q0.453125 0.15625 0.8125 0.21875q0.359375 0.0625 0.765625 0.0625q0.796875 0 1.21875 -0.4375q0.4375 -0.4375 0.734375 -1.1875q-1.015625 -2.0 -2.046875 -4.484375q-1.015625 -2.5 -1.90625 -5.59375l3.15625 0q0.203125 0.78125 0.46875 1.6875q0.265625 0.90625 0.5625 1.84375q0.3125 0.921875 0.609375 1.8125q0.3125 0.875 0.59375 1.59375q0.265625 -0.71875 0.546875 -1.59375q0.28125 -0.890625 0.546875 -1.8125q0.265625 -0.9375 0.515625 -1.84375q0.25 -0.90625 0.453125 -1.6875l3.078125 0z" fill-rule="nonzero"/><path fill="#ffffff" d="m49.874016 46.007874l0 0c0 -17.125175 13.939102 -31.007874 31.133858 -31.007874l0 0c8.25721 0 16.176231 3.2668915 22.014961 9.081997c5.83873 5.8151035 9.1188965 13.702076 9.1188965 21.925877l0 0c0 17.125175 -13.939102 31.007874 -31.133858 31.007874l0 0c-17.194756 0 -31.133858 -13.882698 -31.133858 -31.007874zm5.332733 0l0 0c0 14.179989 11.551559 25.67514 25.801125 25.67514c14.249565 0 25.801125 -11.4951515 25.801125 -25.67514l0 0c0 -14.179987 -11.551559 -25.675138 -25.801125 -25.675138l0 0c-14.249565 0 -25.801125 11.4951515 -25.801125 25.675138z" fill-rule="evenodd"/><path fill="#ffffff" d="m77.42259 11.112861l7.1705627 0c0.24364471 0 0.47731018 0.0967865 0.64958954 0.26906776c0.17227936 0.17228127 0.26906586 0.40594387 0.26906586 0.6495857l0 4.593158c0 4.196167E-5 -3.0517578E-5 7.43866E-5 -7.6293945E-5 7.43866E-5l-9.007797 -7.43866E-5l0 0c-3.8146973E-5 0 -7.6293945E-5 -3.4332275E-5 -7.6293945E-5 -7.43866E-5l7.6293945E-5 -4.5930834l0 0c0 -0.50735855 0.41129303 -0.9186535 0.9186554 -0.9186535z" fill-rule="evenodd"/><path fill="#ffffff" d="m84.593155 80.845146l-7.1705627 0c-0.24364471 0 -0.47731018 -0.0967865 -0.64958954 -0.26906586c-0.17227936 -0.17228699 -0.26906586 -0.40594482 -0.26906586 -0.64958954l0 -4.593155c0 -4.5776367E-5 3.0517578E-5 -7.6293945E-5 7.6293945E-5 -7.6293945E-5l9.007797 7.6293945E-5l0 0c4.5776367E-5 0 7.6293945E-5 3.0517578E-5 7.6293945E-5 7.6293945E-5l-7.6293945E-5 4.5930786l0 0c0 0.50735474 -0.41129303 0.9186554 -0.9186554 0.9186554z" fill-rule="evenodd"/><path fill="#ffffff" d="m115.88714 42.346474l0 7.1705666c0 0.24364471 -0.0967865 0.47730637 -0.26906586 0.64958954c-0.17227936 0.17227936 -0.40594482 0.26906586 -0.64958954 0.26906586l-4.593155 0c-3.8146973E-5 0 -7.6293945E-5 -3.4332275E-5 -7.6293945E-5 -7.6293945E-5l7.6293945E-5 -9.007797l0 0c0 -4.196167E-5 3.0517578E-5 -7.6293945E-5 7.6293945E-5 -7.6293945E-5l4.5930786 7.6293945E-5l0 0c0.50736237 0 0.9186554 0.41129303 0.9186554 0.9186516z" fill-rule="evenodd"/><path fill="#ffffff" d="m46.25197 49.51704l0 -7.1705666c0 -0.2436409 0.0967865 -0.47730255 0.26906586 -0.6495857c0.17228317 -0.17227936 0.40594482 -0.26906586 0.64958954 -0.26906586l4.593155 0c4.196167E-5 0 7.6293945E-5 3.4332275E-5 7.6293945E-5 7.6293945E-5l-7.6293945E-5 9.007797l0 0c0 4.196167E-5 -3.4332275E-5 7.6293945E-5 -7.247925E-5 7.6293945E-5l-4.5930824 -7.6293945E-5l0 0c-0.50735855 0 -0.9186554 -0.41129684 -0.9186554 -0.9186554z" fill-rule="evenodd"/><path fill="#ffffff" d="m49.279423 32.0841l3.3107796 -6.370739c0.112277985 -0.21605301 0.30568314 -0.37845993 0.53767014 -0.4514923c0.231987 -0.07303047 0.4835472 -0.050704956 0.69934464 0.06206703l4.068226 2.1259747c3.4332275E-5 1.9073486E-5 4.9591064E-5 6.484985E-5 3.0517578E-5 1.02996826E-4l-4.1575127 7.999897l0 0c-1.9073486E-5 3.8146973E-5 -6.484985E-5 5.340576E-5 -9.918213E-5 3.4332275E-5l-4.0681267 -2.126011l0 0c-0.44937134 -0.23483276 -0.6241226 -0.7899246 -0.3903122 -1.2398338z" fill-rule="evenodd"/><path fill="#ffffff" d="m113.16631 60.26454l-3.3107758 6.370735c-0.1122818 0.21605682 -0.30568695 0.37846375 -0.5376663 0.4514923c-0.231987 0.073036194 -0.48355103 0.050704956 -0.69934845 -0.062065125l-4.068222 -2.1259766c-3.8146973E-5 -1.5258789E-5 -5.340576E-5 -6.1035156E-5 -3.8146973E-5 -9.918213E-5l4.1575165 -7.999901l0 0c1.5258789E-5 -3.4332275E-5 6.1035156E-5 -4.9591064E-5 9.918213E-5 -3.0517578E-5l4.068123 2.126007l0 0c0.44937897 0.23483658 0.6241226 0.78992844 0.3903122 1.2398376z" fill-rule="evenodd"/><path fill="#ffffff" d="m49.27811 60.26454l3.3107796 6.370735c0.112277985 0.21605682 0.30568314 0.37846375 0.53767014 0.4514923c0.231987 0.073036194 0.4835472 0.050704956 0.69934464 -0.062065125l4.068226 -2.1259766c3.4332275E-5 -1.5258789E-5 4.9591064E-5 -6.1035156E-5 3.0517578E-5 -9.918213E-5l-4.1575127 -7.999901l0 0c-1.9073486E-5 -3.4332275E-5 -6.484985E-5 -4.9591064E-5 -9.918213E-5 -3.0517578E-5l-4.0681267 2.126007l0 0c-0.44937134 0.23483658 -0.6241226 0.78992844 -0.3903122 1.2398376z" fill-rule="evenodd"/><path fill="#ffffff" d="m113.16631 32.0841l-3.3107758 -6.370739c-0.1122818 -0.21605301 -0.30568695 -0.37845993 -0.5376663 -0.4514923c-0.231987 -0.07303047 -0.48355103 -0.050704956 -0.69934845 0.06206703l-4.068222 2.1259747c-3.8146973E-5 1.9073486E-5 -5.340576E-5 6.484985E-5 -3.8146973E-5 1.02996826E-4l4.1575165 7.999897l0 0c1.5258789E-5 3.8146973E-5 6.1035156E-5 5.340576E-5 9.918213E-5 3.4332275E-5l4.068123 -2.126011l0 0c0.44937897 -0.23483276 0.6241226 -0.7899246 0.3903122 -1.2398338z" fill-rule="evenodd"/><path fill="#ffffff" d="m101.798035 17.849333l-6.1925583 -3.6353073c-0.21044922 -0.123539925 -0.46149445 -0.1585083 -0.69792175 -0.097210884c-0.23641968 0.061297417 -0.43885803 0.21383953 -0.562767 0.4240675l-2.3359451 3.9632378c-2.2888184E-5 3.6239624E-5 -1.5258789E-5 8.201599E-5 2.2888184E-5 1.02996826E-4l7.779503 4.566828l0 0c3.8146973E-5 2.0980835E-5 8.392334E-5 7.6293945E-6 9.918213E-5 -2.670288E-5l2.335846 -3.963213l0 0c0.25803375 -0.43777847 0.111946106 -1.0012169 -0.3262787 -1.2584782z" fill-rule="evenodd"/><path fill="#ffffff" d="m60.7997 17.849333l6.1925545 -3.6353073c0.21044922 -0.123539925 0.46149445 -0.1585083 0.69792175 -0.097210884c0.23641968 0.061297417 0.43885803 0.21383953 0.562767 0.4240675l2.3359451 3.9632378c2.2888184E-5 3.6239624E-5 1.5258789E-5 8.201599E-5 -2.2888184E-5 1.02996826E-4l-7.779503 4.566828l0 0c-3.4332275E-5 2.0980835E-5 -8.010864E-5 7.6293945E-6 -1.02996826E-4 -2.670288E-5l-2.335846 -3.963213l0 0c-0.25802612 -0.43777847 -0.111946106 -1.0012169 0.32628632 -1.2584782z" fill-rule="evenodd"/><path fill="#ffffff" d="m101.798035 74.164154l-6.1925583 3.6353073c-0.21044922 0.123542786 -0.46149445 0.1585083 -0.69792175 0.097213745c-0.23641968 -0.061294556 -0.43885803 -0.21383667 -0.562767 -0.42406464l-2.3359451 -3.9632416c-2.2888184E-5 -3.8146973E-5 -1.5258789E-5 -8.392334E-5 2.2888184E-5 -9.918213E-5l7.779503 -4.566826l0 0c3.8146973E-5 -2.2888184E-5 8.392334E-5 -1.5258789E-5 9.918213E-5 2.2888184E-5l2.335846 3.963211l0 0c0.25803375 0.4377823 0.111946106 1.0012207 -0.3262787 1.2584763z" fill-rule="evenodd"/><path fill="#ffffff" d="m60.7997 74.164154l6.1925545 3.6353073c0.21044922 0.123542786 0.46149445 0.1585083 0.69792175 0.097213745c0.23641968 -0.061294556 0.43885803 -0.21383667 0.562767 -0.42406464l2.3359451 -3.9632416c2.2888184E-5 -3.8146973E-5 1.5258789E-5 -8.392334E-5 -2.2888184E-5 -9.918213E-5l-7.779503 -4.566826l0 0c-3.4332275E-5 -2.2888184E-5 -8.010864E-5 -1.5258789E-5 -1.02996826E-4 2.2888184E-5l-2.335846 3.963211l0 0c-0.25802612 0.4377823 -0.111946106 1.0012207 0.32628632 1.2584763z" fill-rule="evenodd"/><path fill="#ffffff" d="m57.72966 46.097115l0 0c0 -12.863453 10.484291 -23.29134 23.41732 -23.29134l0 0c6.210663 0 12.166946 2.4539013 16.558548 6.8218746c4.3916016 4.367975 6.85878 10.292215 6.85878 16.469465l0 0c0 12.863449 -10.484299 23.291336 -23.417328 23.291336l0 0c-12.933029 0 -23.41732 -10.427887 -23.41732 -23.291336z" fill-rule="evenodd"/><path fill="#000000" fill-opacity="0.0" d="m65.08399 38.364594l0 0c0 -1.8438835 1.4947586 -3.3386497 3.338646 -3.3386497l25.543175 0c0.8854675 0 1.7346649 0.35174942 2.3607788 0.9778671c0.6261215 0.6261177 0.9778671 1.4753189 0.9778671 2.3607826l0 13.354198c0 1.8438835 -1.4947586 3.3386497 -3.338646 3.3386497l-25.543175 0c-1.8438873 0 -3.338646 -1.4947662 -3.338646 -3.3386497z" fill-rule="evenodd"/><path stroke="#003c7d" stroke-width="2.0" stroke-linejoin="round" stroke-linecap="butt" d="m65.08399 38.364594l0 0c0 -1.8438835 1.4947586 -3.3386497 3.338646 -3.3386497l25.543175 0c0.8854675 0 1.7346649 0.35174942 2.3607788 0.9778671c0.6261215 0.6261177 0.9778671 1.4753189 0.9778671 2.3607826l0 13.354198c0 1.8438835 -1.4947586 3.3386497 -3.338646 3.3386497l-25.543175 0c-1.8438873 0 -3.338646 -1.4947662 -3.338646 -3.3386497z" fill-rule="evenodd"/><path fill="#003c7d" d="m96.66928 55.043274l-30.834625 0c-0.18376923 0 -0.3600235 -0.07300186 -0.48996735 -0.20295334c-0.12995148 -0.12994766 -0.20295715 -0.30619812 -0.20295715 -0.48997116l0 -3.4645538c0 -1.487732E-4 1.2207031E-4 -2.708435E-4 2.670288E-4 -2.708435E-4l32.220207 2.708435E-4l0 0c1.449585E-4 0 2.670288E-4 1.18255615E-4 2.670288E-4 2.670288E-4l-2.670288E-4 3.4642868l0 0c0 0.38269043 -0.31023407 0.6929245 -0.6929245 0.6929245z" fill-rule="evenodd"/><path fill="#ffffff" d="m79.68604 53.53674l0 0c0 -0.826252 0.66980743 -1.4960632 1.4960632 -1.4960632l0 0c0.3967743 0 0.7773056 0.15761948 1.057869 0.43818665c0.28057098 0.28056717 0.43818665 0.66109467 0.43818665 1.0578766l0 0c0 0.826252 -0.66980743 1.4960632 -1.4960556 1.4960632l0 0c-0.8262558 0 -1.4960632 -0.66981125 -1.4960632 -1.4960632z" fill-rule="evenodd"/><path fill="#003c7d" d="m76.05787 60.756958l0 0c1.5206833 0 2.7534332 -1.2327538 2.7534332 -2.753437l4.760849 0l0 0c0 1.5206833 1.2327499 2.753437 2.7534332 2.753437l0 1.8317108l0 0c-1.5206833 0 -2.7534332 1.2327538 -2.7534332 2.7534332l-4.760849 0c0 -1.5206795 -1.2327499 -2.7534332 -2.7534332 -2.7534332z" fill-rule="evenodd"/><path fill="#ffffff" d="m74.568474 61.977417l13.732277 0l0 4.1574783l-13.732277 0z" fill-rule="evenodd"/><path fill="#ffffff" d="m77.0 29.28084l8.503937 0l0 11.0236225l-8.503937 0z" fill-rule="evenodd"/><path fill="#003c7d" d="m84.37053 31.1629l3.1338577 0l0 0c1.7307816 0 3.1338577 1.6427975 3.1338577 3.6692905c0 2.026493 -1.4030762 3.6692924 -3.1338577 3.6692924l-3.1338577 0z" fill-rule="evenodd"/><path fill="#003c7d" d="m78.07567 31.1629l-3.1338577 0l0 0c-1.7307816 0 -3.1338577 1.6427975 -3.1338577 3.6692905c0 2.026493 1.4030762 3.6692924 3.1338577 3.6692924l3.1338577 0z" fill-rule="evenodd"/><path fill="#003c7d" d="m75.855644 36.642612l0 0c0 -0.45226288 0.36663055 -0.81889725 0.81889343 -0.81889725l3.9685059 0c0.21718597 0 0.42547607 0.08627701 0.57904816 0.23984909c0.15357208 0.1535759 0.2398529 0.361866 0.2398529 0.57904816l0 0l0 0c0 0.4522667 -0.36663818 0.81890106 -0.81890106 0.81890106l-3.9685059 0c-0.45226288 0 -0.81889343 -0.36663437 -0.81889343 -0.81890106z" fill-rule="evenodd"/><path fill="#003c7d" d="m76.5493 41.406803l3.1181107 3.4330711l-0.69291687 0.598423l-3.1181107 -3.4330711z" fill-rule="evenodd"/><path stroke="#003c7d" stroke-width="1.0" stroke-linejoin="round" stroke-linecap="butt" d="m76.5493 41.406803l3.1181107 3.4330711l-0.69291687 0.598423l-3.1181107 -3.4330711z" fill-rule="evenodd"/><path fill="#003c7d" d="m79.62376 44.932953l-3.4330673 3.1496048l-0.5669327 -0.6614151l3.433075 -3.1496048z" fill-rule="evenodd"/><path stroke="#003c7d" stroke-width="1.0" stroke-linejoin="round" stroke-linecap="butt" d="m79.62376 44.932953l-3.4330673 3.1496048l-0.5669327 -0.6614151l3.433075 -3.1496048z" fill-rule="evenodd"/><path fill="#003c7d" d="m82.043304 46.58287l4.8503876 0l0 0.75590515l-4.8503876 0z" fill-rule="evenodd"/><path stroke="#003c7d" stroke-width="1.0" stroke-linejoin="round" stroke-linecap="butt" d="m82.043304 46.58287l4.8503876 0l0 0.75590515l-4.8503876 0z" fill-rule="evenodd"/><path fill="#003c7d" d="m75.855644 33.018597l0 0c0 -0.45226288 0.36663055 -0.81889725 0.81889343 -0.81889725l3.9685059 0c0.21718597 0 0.42547607 0.08627701 0.57904816 0.23984909c0.15357208 0.1535759 0.2398529 0.361866 0.2398529 0.57904816l0 0l0 0c0 0.4522667 -0.36663818 0.81890106 -0.81890106 0.81890106l-3.9685059 0c-0.45226288 0 -0.81889343 -0.36663437 -0.81889343 -0.81890106z" fill-rule="evenodd"/></g></svg>